<svg width="120" height="33" viewBox="0 0 120 33" fill="none" xmlns="http://www.w3.org/2000/svg">
<g clip-path="url(#clip0_120_1148)">
<path d="M9.9974 19.8668V24.2117C9.9974 26.3841 9.0406 27.1675 7.51998 27.1675C5.99935 27.1675 5.0434 26.3841 5.0434 24.2117V7.78631C5.0434 5.61386 6.0002 4.78777 7.52083 4.78777C9.04146 4.78777 9.9974 5.61386 9.9974 7.78631V11.0454H14.5166V8.09044C14.5166 3.22357 12.0827 0.442871 7.39012 0.442871C2.69668 0.442871 0.263672 3.22357 0.263672 8.09044V23.9075C0.263672 28.7744 2.69668 31.556 7.39012 31.556C12.0827 31.556 14.5166 28.7744 14.5166 23.9075V19.8668H9.9974ZM28.0305 0.790565L32.8974 31.2083H28.0741L27.248 25.6896H21.3825L20.5564 31.2083H16.1679L21.0348 0.790565H28.0305ZM24.2503 6.17854L21.9907 21.5617H26.5962L24.3374 6.17769H24.2512L24.2503 6.17854ZM49.9746 31.2083H45.1077C44.8471 30.4257 44.6729 29.9473 44.6729 27.4708V22.691C44.6729 19.8668 43.7169 18.8237 41.5445 18.8237H39.8931V31.2083H35.1134V0.790565H42.327C47.2801 0.790565 49.409 3.09372 49.409 7.78717V10.1766C49.409 13.305 48.4095 15.304 46.2806 16.3035C48.6709 17.3893 49.4526 19.6489 49.4526 22.8217V27.5143C49.4526 28.9922 49.4962 30.078 49.9737 31.2083H49.9746ZM42.1963 5.13546H39.8931V14.4788H41.7615C43.5435 14.4788 44.6293 13.6971 44.6293 11.2633V8.26471C44.6293 6.09226 43.8912 5.13632 42.1963 5.13632V5.13546ZM64.5418 0.790565L69.4087 31.2083H64.5854L63.7602 25.6896H57.8938L57.0686 31.2083H52.6792L57.5461 0.790565H64.5427H64.5418ZM60.7616 6.17854L58.502 21.5617H63.1083L60.8488 6.17769H60.7616V6.17854ZM73.8305 0.790565H69.0072L73.6998 31.2083H80.8262L85.5188 0.790565H81.1304L77.5236 25.6016H77.4364L73.8305 0.790565ZM96.9799 0.790565L101.847 31.2083H97.0235L96.1982 25.6896H90.3319L89.5058 31.2083H85.1173L89.9842 0.790565H96.9799ZM93.1997 6.17854L90.9401 21.5617H95.5464L93.2868 6.17769H93.1997V6.17854ZM114.953 31.2083H119.864V0.790565H115.605V18.9971H115.518L110.695 0.790565H104.698V31.2083H109.001V9.17623H109.087L114.953 31.2083Z" fill="#7B6E9B"/>
</g>
<defs>
<clipPath id="clip0_120_1148">
<rect width="119.6" height="32.4629" fill="white" transform="translate(0.263672 0.442871)"/>
</clipPath>
</defs>
</svg>
