<svg width="130" height="35" viewBox="0 0 130 35" fill="none" xmlns="http://www.w3.org/2000/svg">
<g clip-path="url(#clip0_120_1150)">
<path fill-rule="evenodd" clip-rule="evenodd" d="M19.7208 15.2744H22.0419C24.4407 15.2744 25.7366 18.0867 24.1741 19.9089L21.9017 22.5572C22.1478 24.1279 22.9773 25.548 24.2246 26.5339C25.473 27.5203 27.0471 28.0004 28.6335 27.8785C30.22 27.7566 31.7023 27.0417 32.7854 25.8761C33.8675 24.711 34.4701 23.1803 34.4726 21.5901C34.4723 21.3135 34.5267 21.0396 34.6325 20.784C34.7383 20.5284 34.8935 20.2961 35.0892 20.1006C35.2849 19.9051 35.5172 19.7501 35.7729 19.6445C36.0286 19.5389 36.3026 19.4847 36.5792 19.4852C37.1377 19.4854 37.6732 19.7072 38.0683 20.1018C38.4634 20.4964 38.6858 21.0317 38.6868 21.5901C38.6866 23.7993 37.9908 25.9522 36.698 27.7436C35.73 29.0821 34.4613 30.1745 32.994 30.933C31.5266 31.6915 29.9016 32.0948 28.2499 32.1104C26.5982 32.126 24.9659 31.7536 23.4844 31.023C22.003 30.2924 20.7138 29.2241 19.7208 27.9042C18.7277 29.2241 17.4385 30.2924 15.9571 31.023C14.4756 31.7536 12.8433 32.126 11.1916 32.1104C9.53988 32.0948 7.91491 31.6915 6.44755 30.933C4.9802 30.1745 3.71147 29.0821 2.74354 27.7436C1.45045 25.9523 0.754312 23.7994 0.753907 21.5901C0.753682 21.3134 0.808059 21.0394 0.913924 20.7838C1.01979 20.5281 1.17506 20.2958 1.37084 20.1003C1.56662 19.9048 1.79906 19.7498 2.05484 19.6442C2.31063 19.5387 2.58472 19.4846 2.86143 19.4852C3.41987 19.4854 3.9554 19.7072 4.35052 20.1018C4.74563 20.4964 4.96805 21.0317 4.96895 21.5901C4.96659 23.1828 5.56655 24.7175 6.64848 25.8863C7.45632 26.7589 8.49377 27.3861 9.6418 27.6959C10.7898 28.0058 12.002 27.9857 13.1391 27.638C14.2763 27.2904 15.2924 26.6292 16.0709 25.7304C16.8494 24.8316 17.3588 23.7315 17.5406 22.5563L15.2665 19.9081C13.7049 18.0867 15 15.2753 17.4022 15.2753H19.7208V15.2744Z" fill="#7B6E9B"/>
<path d="M29.5532 9.66203C30.1064 9.66248 30.6543 9.55393 31.1656 9.34258C31.6768 9.13124 32.1414 8.82123 32.5329 8.43028C32.9243 8.03933 33.2349 7.5751 33.4468 7.06409C33.6588 6.55309 33.768 6.00533 33.7682 5.45211C33.768 4.89889 33.6588 4.35113 33.4468 3.84012C33.2349 3.32912 32.9243 2.86488 32.5329 2.47393C32.1414 2.08298 31.6768 1.77298 31.1656 1.56164C30.6543 1.35029 30.1064 1.24174 29.5532 1.24219C29 1.24185 28.4522 1.35048 27.9411 1.56188C27.4299 1.77328 26.9654 2.0833 26.5741 2.47424C26.1827 2.86517 25.8722 3.32937 25.6603 3.84032C25.4484 4.35127 25.3392 4.89896 25.339 5.45211C25.3392 6.00526 25.4484 6.55295 25.6603 7.0639C25.8722 7.57484 26.1827 8.03904 26.5741 8.42998C26.9654 8.82092 27.4299 9.13094 27.9411 9.34234C28.4522 9.55373 29 9.66236 29.5532 9.66203ZM9.88497 9.66203C10.4381 9.66236 10.9859 9.55373 11.4971 9.34234C12.0082 9.13094 12.4728 8.82092 12.8641 8.42998C13.2554 8.03904 13.5659 7.57484 13.7778 7.0639C13.9897 6.55295 14.0989 6.00526 14.0992 5.45211C14.0989 4.89896 13.9897 4.35127 13.7778 3.84032C13.5659 3.32937 13.2554 2.86517 12.8641 2.47424C12.4728 2.0833 12.0082 1.77328 11.4971 1.56188C10.9859 1.35048 10.4381 1.24185 9.88497 1.24219C9.33174 1.24174 8.78385 1.35029 8.27259 1.56164C7.76133 1.77298 7.29672 2.08298 6.90529 2.47393C6.51387 2.86488 6.2033 3.32912 5.99133 3.84012C5.77936 4.35113 5.67015 4.89889 5.66992 5.45211C5.67015 6.00533 5.77936 6.55309 5.99133 7.06409C6.2033 7.5751 6.51387 8.03933 6.90529 8.43028C7.29672 8.82123 7.76133 9.13124 8.27259 9.34258C8.78385 9.55393 9.33174 9.66248 9.88497 9.66203ZM67.9192 2.27075C68.5684 2.27075 69.1015 2.45613 69.5184 2.82689C69.9353 3.19765 70.1437 3.68459 70.1437 4.28772V25.0768C70.1437 25.703 69.9472 26.201 69.5526 26.5718C69.1596 26.9425 68.6376 27.1279 67.9892 27.1279C67.34 27.1279 66.8188 26.9425 66.4242 26.5726C66.0303 26.201 65.833 25.703 65.833 25.0776V24.208C65.323 25.1579 64.5815 25.8994 63.6076 26.4325C62.6576 26.9656 61.5684 27.2321 60.3399 27.2321C58.8791 27.2321 57.5703 26.8614 56.4119 26.1198C55.2757 25.3783 54.3839 24.3352 53.7346 22.9906C53.1084 21.6237 52.7957 20.0595 52.7957 18.298C52.7957 16.5365 53.1084 14.9953 53.7346 13.6738C54.3839 12.353 55.2757 11.333 56.4119 10.6146C57.5473 9.8961 58.8569 9.53645 60.3399 9.53645C61.5684 9.53645 62.6576 9.79188 63.6084 10.3019C64.5349 10.7886 65.2967 11.5386 65.798 12.4573V4.21767C65.798 3.63846 65.9833 3.17458 66.3541 2.82689C66.7488 2.45613 67.2699 2.27075 67.9192 2.27075ZM61.4872 23.8603C62.878 23.8603 63.9442 23.3853 64.6857 22.4345C65.4503 21.4845 65.833 20.1279 65.833 18.3672C65.833 16.6057 65.4503 15.261 64.6857 14.335C63.9442 13.3842 62.89 12.9083 61.5223 12.9083C60.1315 12.9083 59.0534 13.3722 58.2888 14.2999C57.5242 15.2268 57.1415 16.5595 57.1415 18.298C57.1415 20.0595 57.5242 21.4264 58.2888 22.4003C59.0534 23.3742 60.1195 23.8603 61.4872 23.8603ZM82.3668 27.2321C80.6292 27.2321 79.0992 26.8733 77.7785 26.1549C76.48 25.4364 75.4719 24.4053 74.7534 23.0606C74.035 21.716 73.6753 20.1518 73.6753 18.3672C73.6753 16.5826 74.0341 15.0295 74.7534 13.7088C75.4719 12.3641 76.48 11.333 77.7776 10.6146C79.0992 9.8961 80.6292 9.53645 82.3668 9.53645C84.1053 9.53645 85.6234 9.89525 86.921 10.6146C88.2222 11.3122 89.278 12.3922 89.9461 13.7088C90.6645 15.0295 91.0242 16.5826 91.0242 18.3672C91.0242 20.1527 90.6645 21.716 89.9461 23.0606C89.278 24.3772 88.2222 25.4572 86.921 26.1549C85.6234 26.8725 84.1053 27.2321 82.3677 27.2321H82.3668ZM82.3327 23.8603C83.7465 23.8603 84.8238 23.3964 85.5653 22.4695C86.3077 21.5426 86.6784 20.1749 86.6784 18.3672C86.6784 16.5826 86.3077 15.2268 85.5653 14.2999C84.8238 13.3491 83.7576 12.8741 82.3668 12.8741C80.9769 12.8741 79.8979 13.3491 79.1342 14.2999C78.3927 15.2268 78.0211 16.5826 78.0211 18.3672C78.0211 20.1749 78.3918 21.5426 79.1342 22.4695C79.8757 23.3964 80.9419 23.8603 82.3327 23.8603ZM109.004 9.6065C109.654 9.6065 110.175 9.79188 110.569 10.1618C110.963 10.5334 111.16 11.0314 111.16 11.6568V25.3894C111.16 28.0548 110.418 30.0709 108.935 31.4395C107.451 32.8063 105.262 33.4898 102.364 33.4898C99.8378 33.4898 97.7286 33.0156 96.0371 32.0648C95.1794 31.5548 94.7506 30.9406 94.7506 30.2221C94.7506 29.7121 94.8667 29.3072 95.0983 29.0056C95.3528 28.7041 95.6775 28.5529 96.0713 28.5529C96.2806 28.5529 96.5352 28.5998 96.8367 28.6929C97.1374 28.8083 97.451 28.9364 97.7747 29.0748C98.5006 29.3837 99.2437 29.6506 100 29.8744C100.672 30.0598 101.437 30.1529 102.295 30.1529C105.331 30.1529 106.849 28.6699 106.849 25.7021V23.4775C106.339 24.4284 105.597 25.169 104.624 25.703C103.651 26.213 102.538 26.4675 101.287 26.4675C99.8028 26.4675 98.4821 26.1198 97.3228 25.4253C96.1875 24.706 95.2956 23.7099 94.6463 22.4353C93.9971 21.1599 93.6725 19.6888 93.6725 18.0195C93.6725 16.3511 93.986 14.8792 94.6113 13.6046C95.2606 12.306 96.1644 11.3099 97.3228 10.6146C98.4821 9.8961 99.8028 9.53645 101.287 9.53645C102.538 9.53645 103.651 9.80299 104.624 10.3361C105.573 10.8215 106.349 11.586 106.849 12.5264V11.6226C106.849 11.0203 107.046 10.5334 107.44 10.1618C107.834 9.79188 108.356 9.6065 109.004 9.6065ZM102.434 23.0957C103.825 23.0957 104.902 22.6429 105.667 21.7399C106.455 20.8352 106.849 19.5957 106.849 18.0195C106.849 16.4203 106.455 15.1688 105.667 14.2649C104.902 13.3611 103.825 12.9092 102.434 12.9092C101.066 12.9092 99.9882 13.3611 99.2005 14.2649C98.4129 15.1688 98.0182 16.4203 98.0182 18.0195C98.0182 19.5957 98.4129 20.8352 99.2005 21.7399C99.9882 22.6438 101.066 23.0957 102.434 23.0957ZM121.814 27.2321C119.288 27.2321 117.249 26.7341 115.696 25.7371C114.954 25.2972 114.584 24.671 114.584 23.8603C114.584 23.3964 114.711 23.0256 114.966 22.748C115.221 22.4464 115.534 22.2952 115.904 22.2952C116.298 22.2952 116.843 22.4814 117.539 22.8522C118.28 23.1999 118.952 23.4664 119.555 23.6518C120.181 23.8372 120.969 23.9295 121.919 23.9295C122.892 23.9295 123.646 23.7671 124.179 23.4425C124.735 23.1179 125.013 22.6668 125.013 22.0868C125.013 21.6938 124.897 21.3803 124.665 21.1488C124.457 20.9164 124.063 20.7079 123.484 20.5226C122.927 20.3141 122.07 20.0826 120.911 19.8272C118.848 19.4103 117.364 18.8191 116.461 18.0545C115.58 17.2899 115.14 16.2349 115.14 14.8911C115.14 13.8711 115.441 12.9553 116.044 12.1437C116.646 11.3099 117.469 10.6726 118.512 10.2318C119.578 9.76881 120.783 9.53645 122.127 9.53645C123.101 9.53645 124.04 9.66459 124.944 9.91917C125.806 10.1329 126.628 10.4849 127.377 10.9614C128.119 11.4253 128.49 12.0395 128.49 12.8049C128.49 13.268 128.362 13.6626 128.107 13.9864C127.852 14.288 127.539 14.4392 127.168 14.4392C126.914 14.4392 126.658 14.3922 126.404 14.2999C126.099 14.1447 125.797 13.9823 125.5 13.813C124.827 13.4653 124.248 13.2107 123.761 13.0484C123.274 12.863 122.672 12.7699 121.954 12.7699C121.096 12.7699 120.412 12.9442 119.902 13.291C119.415 13.6387 119.172 14.1146 119.172 14.7168C119.172 15.296 119.427 15.7369 119.937 16.0376C120.447 16.3391 121.432 16.6407 122.892 16.9423C124.446 17.2669 125.662 17.6368 126.543 18.0545C127.424 18.4714 128.049 18.9934 128.42 19.6187C128.814 20.2449 129.011 21.0445 129.011 22.0176C129.011 23.5937 128.35 24.8572 127.03 25.8072C125.731 26.7571 123.993 27.2321 121.814 27.2321Z" fill="#7B6E9B"/>
</g>
<defs>
<clipPath id="clip0_120_1150">
<rect width="129.851" height="33.3171" fill="white" transform="translate(0.0507812 0.879883)"/>
</clipPath>
</defs>
</svg>
