<svg width="142" height="33" viewBox="0 0 142 33" fill="none" xmlns="http://www.w3.org/2000/svg">
<g clip-path="url(#clip0_120_1153)">
<path d="M2.90407 24.8986C2.20616 24.8986 1.64061 24.6833 1.20743 24.2527C0.79831 23.8222 0.59375 23.2601 0.59375 22.5664V1.57658C0.59375 0.882896 0.786277 0.344696 1.17133 -0.0380239C1.58045 -0.420744 2.13396 -0.612104 2.83187 -0.612104H15.5025C16.9706 -0.612104 17.7046 0.00981611 17.7046 1.25366C17.7046 2.47358 16.9706 3.08354 15.5025 3.08354H5.17829V9.9725H14.7806C16.2486 9.9725 16.9826 10.5944 16.9826 11.8383C16.9826 13.0582 16.2486 13.6681 14.7806 13.6681H5.17829V22.5664C5.17829 23.2601 4.97373 23.8222 4.56462 24.2527C4.1555 24.6833 3.60198 24.8986 2.90407 24.8986ZM24.327 24.8986C23.6772 24.8986 23.1357 24.7192 22.7025 24.3604C22.2934 23.9777 22.0889 23.4395 22.0889 22.7458V1.32542C22.0889 0.631736 22.2934 0.105496 22.7025 -0.253304C23.1357 -0.612104 23.6772 -0.791504 24.327 -0.791504C24.9768 -0.791504 25.5182 -0.612104 25.9514 -0.253304C26.3846 0.105496 26.6012 0.631736 26.6012 1.32542V22.7458C26.6012 23.4395 26.3846 23.9777 25.9514 24.3604C25.5182 24.7192 24.9768 24.8986 24.327 24.8986ZM45.2247 19.8754C45.6338 19.8754 45.9587 20.0309 46.1994 20.3418C46.4641 20.6528 46.5965 21.0714 46.5965 21.5976C46.5965 22.3391 46.1513 22.9611 45.2608 23.4634C44.4426 23.9179 43.5161 24.2886 42.4812 24.5757C41.4464 24.8388 40.4597 24.9703 39.5211 24.9703C36.6814 24.9703 34.4312 24.1571 32.7706 22.5305C31.1101 20.9039 30.2798 18.6794 30.2798 15.8568C30.2798 14.0628 30.6408 12.4721 31.3628 11.0848C32.0848 9.69742 33.0955 8.62102 34.3951 7.85558C35.7187 7.09014 37.2108 6.70742 38.8713 6.70742C40.4597 6.70742 41.8435 7.05426 43.0227 7.74794C44.2019 8.44162 45.1164 9.42233 45.7662 10.6901C46.416 11.9579 46.7409 13.4529 46.7409 15.1751C46.7409 16.2037 46.2836 16.7179 45.3691 16.7179H34.72C34.8644 18.3684 35.3337 19.5883 36.1278 20.3777C36.922 21.1431 38.0772 21.5259 39.5933 21.5259C40.3634 21.5259 41.0373 21.4302 41.6149 21.2388C42.2165 21.0475 42.8903 20.7843 43.6364 20.4495C44.3584 20.0667 44.8878 19.8754 45.2247 19.8754ZM38.9788 9.86486C37.7514 9.86486 36.7647 10.2476 36.0187 11.013C35.2967 11.7785 34.8635 12.8788 34.7191 14.314H42.8774C42.8293 12.8549 42.4683 11.7545 41.7945 11.013C41.1206 10.2476 40.1821 9.86486 38.9788 9.86486ZM65.385 21.3823C65.8182 21.8129 66.0348 22.3033 66.0348 22.8534C66.0348 23.3797 65.8303 23.8581 65.4211 24.2886C65.012 24.6953 64.5307 24.8986 63.9772 24.8986C63.3755 24.8986 62.8581 24.6474 62.4249 24.1451L57.335 18.5478L52.2451 24.1451C51.7878 24.6235 51.2704 24.8627 50.6928 24.8627C50.1634 24.8627 49.6941 24.6594 49.285 24.2527C48.8759 23.8461 48.6713 23.3797 48.6713 22.8534C48.6713 22.3033 48.8879 21.8129 49.3211 21.3823L54.5915 15.6774L49.6099 10.2954C49.1767 9.86485 48.9601 9.3745 48.9601 8.82434C48.9601 8.27417 49.1646 7.80774 49.5738 7.42502C49.9829 7.01838 50.4522 6.81506 50.9816 6.81506C51.5592 6.81506 52.0766 7.05426 52.5339 7.53266L57.335 12.7711L62.1361 7.53266C62.5934 7.05426 63.1108 6.81506 63.6884 6.81506C64.2419 6.81506 64.7112 7.01838 65.0962 7.42502C65.5054 7.80774 65.7099 8.27417 65.7099 8.82434C65.7099 9.3745 65.4933 9.86485 65.0601 10.2954L60.0785 15.6774L65.385 21.3823ZM85.3563 11.623C86.8243 12.0296 87.9554 12.7711 88.7495 13.8475C89.5678 14.9239 89.9769 16.2395 89.9769 17.7943C89.9769 19.9471 89.1948 21.6335 87.6305 22.8534C86.0903 24.0733 83.9604 24.6833 81.241 24.6833H71.9275C71.2296 24.6833 70.6761 24.4919 70.267 24.1092C69.8819 23.7265 69.6894 23.1883 69.6894 22.4946V1.57658C69.6894 0.882896 69.8819 0.344696 70.267 -0.0380239C70.6761 -0.420744 71.2296 -0.612104 71.9275 -0.612104H80.8791C83.5264 -0.612104 85.5961 -0.026064 87.0881 1.14602C88.6043 2.29418 89.3624 3.90878 89.3624 5.98982C89.3624 7.32934 89.0014 8.48946 88.2794 9.47018C87.5815 10.4509 86.6068 11.1685 85.3554 11.623H85.3563ZM74.2378 10.0443H80.1219C83.3227 10.0443 84.9231 8.86022 84.9231 6.49214C84.9231 5.29614 84.526 4.4111 83.7318 3.83702C82.9376 3.26294 81.7343 2.9759 80.1219 2.9759H74.2378V10.0443ZM80.7356 21.0953C82.4202 21.0953 83.6476 20.7963 84.4177 20.1983C85.1878 19.6003 85.5728 18.6674 85.5728 17.3997C85.5728 16.1319 85.1758 15.1871 84.3816 14.5651C83.6115 13.9432 82.3961 13.6323 80.7356 13.6323H74.2378V21.0953H80.7356ZM96.1721 24.8986C95.5224 24.8986 94.9809 24.7192 94.5477 24.3604C94.1386 23.9777 93.934 23.4395 93.934 22.7458V1.32542C93.934 0.631736 94.1386 0.105496 94.5477 -0.253304C94.9809 -0.612104 95.5224 -0.791504 96.1721 -0.791504C96.8219 -0.791504 97.3634 -0.612104 97.7966 -0.253304C98.2298 0.105496 98.4464 0.631736 98.4464 1.32542V22.7458C98.4464 23.4395 98.2298 23.9777 97.7966 24.3604C97.3634 24.7192 96.8219 24.8986 96.1721 24.8986ZM111.15 24.9703C109.345 24.9703 107.756 24.5996 106.385 23.8581C105.037 23.1165 103.99 22.0521 103.244 20.6647C102.498 19.2774 102.125 17.6628 102.125 15.8209C102.125 13.9791 102.498 12.3765 103.244 11.013C103.99 9.62566 105.037 8.56122 106.385 7.8197C107.756 7.07818 109.345 6.70742 111.15 6.70742C112.955 6.70742 114.531 7.07818 115.879 7.8197C117.229 8.53988 118.326 9.65441 119.019 11.013C119.765 12.3765 120.138 13.9791 120.138 15.8209C120.138 17.6628 119.765 19.2774 119.019 20.6647C118.326 22.0233 117.229 23.1379 115.879 23.8581C114.531 24.5996 112.955 24.9703 111.15 24.9703ZM111.114 21.49C112.582 21.49 113.701 21.0116 114.471 20.0548C115.241 19.098 115.626 17.6867 115.626 15.8209C115.626 13.9791 115.241 12.5798 114.471 11.623C113.701 10.6423 112.594 10.1519 111.15 10.1519C109.706 10.1519 108.587 10.6423 107.792 11.623C107.022 12.5798 106.637 13.9791 106.637 15.8209C106.637 17.6867 107.022 19.098 107.792 20.0548C108.563 21.0116 109.67 21.49 111.114 21.49ZM138.808 6.77918C139.482 6.77918 140.024 6.97054 140.433 7.35326C140.842 7.73598 141.046 8.25026 141.046 8.8961V23.0687C141.046 25.8195 140.276 27.9005 138.736 29.3118C137.196 30.7231 134.922 31.4287 131.913 31.4287C129.29 31.4287 127.1 30.9384 125.343 29.9577C124.453 29.4314 124.008 28.7975 124.008 28.056C124.008 27.5298 124.128 27.1112 124.369 26.8002C124.633 26.4893 124.97 26.3338 125.379 26.3338C125.596 26.3338 125.861 26.3816 126.174 26.4773C126.487 26.5969 126.811 26.7285 127.148 26.872C128.015 27.2308 128.785 27.5059 129.459 27.6972C130.157 27.8886 130.951 27.9843 131.841 27.9843C134.994 27.9843 136.57 26.4534 136.57 23.3916V21.0953C136.041 22.076 135.271 22.8415 134.26 23.3916C133.249 23.9179 132.094 24.181 130.794 24.181C129.254 24.181 127.882 23.8222 126.679 23.1046C125.5 22.3631 124.573 21.3345 123.899 20.0189C123.226 18.7033 122.889 17.1844 122.889 15.4621C122.889 13.7399 123.214 12.221 123.863 10.9054C124.537 9.56586 125.476 8.5373 126.679 7.8197C127.882 7.07818 129.254 6.70742 130.794 6.70742C132.094 6.70742 133.249 6.9825 134.26 7.53266C135.244 8.0334 136.051 8.82239 136.57 9.7931V8.86022C136.57 8.2383 136.775 7.73598 137.184 7.35326C137.593 6.97054 138.134 6.77918 138.808 6.77918ZM131.986 20.7006C133.43 20.7006 134.549 20.2342 135.343 19.3013C136.161 18.3684 136.57 17.0887 136.57 15.4621C136.57 13.8117 136.161 12.52 135.343 11.5871C134.549 10.6542 133.43 10.1878 131.986 10.1878C130.566 10.1878 129.447 10.6542 128.628 11.5871C127.81 12.52 127.401 13.8117 127.401 15.4621C127.401 17.0887 127.81 18.3684 128.628 19.3013C129.447 20.2342 130.566 20.7006 131.986 20.7006Z" fill="#7B6E9B"/>
</g>
<defs>
<clipPath id="clip0_120_1153">
<rect width="140.957" height="32.4629" fill="white" transform="translate(0.59375 0.0629883)"/>
</clipPath>
</defs>
</svg>
