<svg width="120" height="44" viewBox="0 0 120 44" fill="none" xmlns="http://www.w3.org/2000/svg">
<g clip-path="url(#clip0_120_1155)">
<path d="M21.6706 9.52951L17.7392 33.7041H12.0907L13.5259 24.975H7.44165L6.0355 33.7041H0.388672L4.3517 9.52951H9.96863L8.28398 19.7365H14.3682L16.0546 9.52951H21.6715H21.6706ZM33.2556 33.7041L33.4436 28.4331H28.2324L26.7032 33.7041H20.7429L28.7629 9.52951H39.0596L39.1852 33.7041H33.2565H33.2556ZM31.9767 15.4053L29.5121 23.9336H33.5999L33.9425 15.4061H31.9767V15.4053ZM63.4204 9.52951L59.4882 33.7041H53.8396L49.9091 20.4763L47.787 33.7049H42.1376L46.1006 9.52951H51.9047L55.7746 21.8859L57.8018 9.52951H63.4196H63.4204ZM76.5978 9.52951C79.323 9.52951 81.2682 10.2685 82.4326 11.7455C83.286 12.8646 83.7114 14.264 83.7114 15.9426C83.7114 16.5475 83.6602 17.1848 83.5568 17.8562L82.3395 25.3441C81.9234 27.8727 80.9034 29.8991 79.2811 31.4214C77.658 32.9438 75.5573 33.7041 72.9765 33.7041H63.8963L67.8602 9.52951H76.5978ZM74.6312 14.768H72.6032L70.388 28.4656H73.3524C74.3297 28.4656 75.0891 28.1854 75.6299 27.6267C76.192 27.0441 76.5764 26.1044 76.7832 24.8067L77.6896 19.3C77.7682 18.8558 77.81 18.4064 77.8143 17.9562C77.8143 15.829 76.7541 14.7671 74.6312 14.7671V14.768ZM100.436 33.7041H84.7708L88.7355 9.52951H104.401L103.527 14.768H93.4785L92.7609 19.3008H101.061L100.188 24.5376H91.887L91.2633 28.4665H101.311L100.437 33.7041H100.436ZM118.26 33.7041H104.031L107.995 9.52951H113.611L110.522 28.4665H119.134L118.26 33.7041ZM63.1539 38.0063H117.438L115.742 43.0312H61.4581L63.1539 38.0063ZM6.32596 0.316895H65.6988L64.0022 5.3418H4.62935L6.32596 0.316895Z" fill="#7B6E9B"/>
</g>
<defs>
<clipPath id="clip0_120_1155">
<rect width="118.746" height="42.7143" fill="white" transform="translate(0.388672 0.316895)"/>
</clipPath>
</defs>
</svg>
