<svg width="178" height="36" viewBox="0 0 178 36" fill="none" xmlns="http://www.w3.org/2000/svg">
<g clip-path="url(#clip0_120_1157)">
<path fill-rule="evenodd" clip-rule="evenodd" d="M12.1212 31.3592C12.0077 31.3582 11.896 31.3311 11.7945 31.2802C11.6931 31.2292 11.6047 31.1557 11.536 31.0653C11.3412 30.8063 11.2095 30.5052 11.1516 30.1863C11.059 29.7802 10.9877 29.3696 10.938 28.9561C10.879 28.4236 10.8488 27.8883 10.8475 27.3526C10.8299 26.1754 10.8339 24.998 10.8595 23.821C10.8748 23.0983 10.8817 22.5344 10.8817 22.1278V8.67108C10.8817 8.00815 10.8859 7.50413 10.8936 7.15814C10.9013 6.81215 10.9278 6.42089 10.9714 5.98435C10.997 5.65972 11.0534 5.33851 11.1414 5.02499C11.2268 4.78322 11.3404 4.55257 11.4788 4.33643C11.6069 4.11005 11.7932 3.92296 12.0196 3.79482C12.2827 3.66326 12.5535 3.54707 12.8303 3.44456C13.187 3.31199 13.5566 3.21749 13.9332 3.16264C14.4238 3.09102 14.916 3.03063 15.4094 2.98154V1.73855L15.0249 1.35412H1.42301L1.0625 1.73855V2.79957C3.34515 2.9354 4.62146 3.58295 4.89141 4.74136C5.0486 5.71952 5.12378 6.70878 5.11694 7.6989V28.3103C5.1547 29.3809 5.10929 30.4528 4.98111 31.5164C4.91875 31.6821 4.82734 31.8342 4.71115 31.9675C4.53719 32.1755 4.35331 32.3751 4.16014 32.5655C4.00709 32.7133 3.86058 32.8678 3.72104 33.0285V33.8187C15.3282 33.8187 22.5128 33.8939 25.2747 34.0451L26.2443 30.7715L25.636 30.3417C21.151 30.9064 16.6404 31.2456 12.1221 31.3583H12.1212V31.3592ZM33.6971 21.9228C33.653 21.9351 33.6078 21.9426 33.5621 21.945C33.3374 21.945 33.2247 21.863 33.2247 21.6972C33.2255 20.9489 33.2819 20.2014 33.3938 19.4616C33.5202 18.6551 33.7312 17.864 34.0243 17.1029C34.3066 16.3311 34.6938 15.6018 35.175 14.9356C35.6849 14.2578 36.3472 13.7094 37.1082 13.3349C37.8692 12.9603 38.7076 12.77 39.5558 12.7793C40.1678 12.7454 40.7782 12.8712 41.327 13.1444C41.8757 13.4175 42.344 13.8287 42.6859 14.3376C43.3959 15.3899 43.7657 16.6349 43.7452 17.9042C43.7422 18.1369 43.6683 18.3631 43.5333 18.5527C43.3984 18.7423 43.2089 18.8862 42.99 18.9652C41.7567 19.4622 40.4973 19.892 39.2175 20.2526C37.4174 20.7823 35.6233 21.3319 33.8355 21.9014C33.7887 21.9034 33.7423 21.9105 33.6971 21.9228ZM47.0752 28.9663C44.3714 30.6066 42.0366 31.4267 40.0718 31.4267C38.7407 31.4556 37.4336 31.0689 36.3325 30.3204C35.3083 29.633 34.4938 28.6761 33.979 27.5551C33.4721 26.431 33.2148 25.2104 33.2247 23.9773C43.0447 20.9224 47.9995 19.3941 48.0892 19.3941C48.4792 19.3143 48.8277 19.0973 49.0714 18.7826C49.3151 18.4679 49.438 18.0762 49.4176 17.6787C49.4444 16.5704 49.1845 15.474 48.6633 14.4956C48.1873 13.6205 47.4829 12.891 46.625 12.3847C45.7594 11.8766 44.8215 11.5036 43.8434 11.2784C42.7826 11.0382 41.6976 10.9207 40.61 10.9281C38.6587 10.8978 36.7238 11.2868 34.9358 12.0686C33.3593 12.7495 31.9664 13.7941 30.8711 15.1167C29.8384 16.3956 29.0415 17.848 28.5175 19.406C27.9742 21.0092 27.7 22.6912 27.706 24.384C27.706 27.8609 28.6457 30.4648 30.5217 32.1955C32.2183 33.776 34.6137 34.5653 37.7062 34.5653C39.4794 34.5472 41.2247 34.1225 42.808 33.3241C44.7147 32.3744 46.5412 31.2716 48.2695 30.0265L47.7766 29.1483L47.076 28.9663H47.0752ZM77.41 5.16167C76.8065 3.58533 75.6214 2.30052 74.0988 1.57196C72.2127 0.77846 70.1754 0.408679 68.1308 0.48873C66.6387 0.480171 65.1516 0.662182 63.7056 1.03035C62.3605 1.37284 61.0764 1.92121 59.8989 2.65605C58.7455 3.38317 57.8022 4.39919 57.1626 5.60334C56.4683 6.92045 56.1194 8.39213 56.1486 9.88075C56.1478 10.9463 56.4067 11.9961 56.9029 12.9391C57.3769 13.8724 58.0182 14.7107 58.7951 15.4122C59.6306 16.1492 60.5186 16.8244 61.452 17.4326C62.3888 18.0568 63.359 18.6295 64.3582 19.148C65.2976 19.6309 66.2215 20.1431 67.1287 20.684C67.8805 21.1095 68.5861 21.6127 69.2345 22.185C70.9004 23.7356 71.7342 25.2101 71.7342 26.6102C71.7311 27.354 71.5756 28.0892 71.2774 28.7705C70.9791 29.4518 70.5443 30.0648 69.9999 30.5715C69.4596 31.1278 68.8113 31.5679 68.0949 31.8649C67.3785 32.162 66.6091 32.3096 65.8336 32.2989C64.9269 32.3249 64.0262 32.1432 63.2006 31.7675C62.3749 31.3919 61.6462 30.8323 61.0701 30.1316C59.8747 28.7627 59.2219 27.0035 59.2351 25.1861L58.3577 24.87L53.8762 29.9044C54.9004 31.3867 56.289 32.5803 57.9084 33.3702C59.5549 34.178 61.3667 34.5918 63.2007 34.579C64.8741 34.5706 66.5368 34.3114 68.1333 33.8101C69.7389 33.3268 71.2701 32.6239 72.6833 31.7214C74.0267 30.8635 75.1676 29.7238 76.0269 28.3812C76.8692 27.1045 77.3194 25.6093 77.322 24.0798C77.3288 23.2591 77.184 22.4441 76.8949 21.6759C76.6275 20.9625 76.2555 20.2928 75.7912 19.6888C75.2446 19.0182 74.6121 18.4225 73.91 17.917C73.1429 17.3385 72.3419 16.8065 71.5112 16.3238C70.5169 15.7572 69.5109 15.2115 68.4938 14.687C67.7847 14.3432 67.0861 13.978 66.3991 13.5918C65.7495 13.2121 65.1172 12.8033 64.5043 12.3667C63.876 11.936 63.3018 11.4312 62.794 10.8632C62.3479 10.3331 61.9834 9.73937 61.7125 9.10164C61.4119 8.41492 61.2585 7.67283 61.2623 6.92321C61.2485 6.31013 61.3578 5.7005 61.5837 5.13042C61.8097 4.56034 62.1478 4.0414 62.5779 3.60431C63.0325 3.14996 63.5765 2.79499 64.1755 2.56191C64.7744 2.32882 65.4153 2.2227 66.0574 2.25027C66.8528 2.21592 67.646 2.35795 68.38 2.66619C69.1141 2.97443 69.7708 3.44124 70.3032 4.03316C71.37 5.24053 72.0419 6.74534 72.2288 8.3456L73.0173 8.59334L77.41 5.16167ZM99.3122 13.8199C98.9099 13.1152 98.3269 12.5307 97.6233 12.1267C96.9269 11.7288 96.1756 11.436 95.3936 11.2579C94.5545 11.0718 93.6971 10.9809 92.8376 10.987C91.1982 10.964 89.5682 11.2433 88.0288 11.8114C86.7084 12.291 85.4982 13.0319 84.4707 13.9899C83.5158 14.915 82.7239 15.9946 82.1283 17.1832C81.516 18.3789 81.0653 19.6507 80.7879 20.9651C80.5142 22.2945 80.3785 23.6486 80.3829 25.0059C80.3778 26.1592 80.541 27.3073 80.8665 28.4128C81.1825 29.4832 81.6738 30.4938 82.3188 31.4045C82.9989 32.3438 83.9111 33.0905 84.9662 33.5718C86.1776 34.1254 87.4974 34.3996 88.8284 34.3731C93.0477 34.3731 97.0116 32.5142 100.72 28.7972L100.27 28.142L99.7069 28.007C96.9595 30.129 94.4214 31.1901 92.0944 31.1901C91.2232 31.2041 90.3616 31.0065 89.5836 30.6143C88.8782 30.2641 88.2643 29.7543 87.7905 29.1252C87.32 28.4787 86.9374 27.7726 86.6525 27.0254C86.3569 26.2793 86.1418 25.5038 86.011 24.712C85.8914 23.9654 85.8316 23.2102 85.8307 22.4541C85.8359 21.4931 85.9187 20.5345 86.0785 19.5871C86.2553 18.5321 86.5193 17.4941 86.867 16.4827C87.1827 15.4942 87.7312 14.5959 88.4662 13.8634C88.7897 13.5356 89.1756 13.2759 89.6011 13.0995C90.0266 12.9232 90.4831 12.8338 90.9436 12.8366C91.559 12.8027 92.1717 12.9411 92.7127 13.2363C93.2537 13.5315 93.7017 13.9717 94.0062 14.5076C94.7026 15.7622 95.0452 17.1825 94.9972 18.6167L95.7857 18.9328L100.043 16.4049C100.008 15.4975 99.7573 14.6114 99.3122 13.8199ZM107.567 20.5363C107.682 19.6495 107.882 18.7764 108.164 17.929C108.423 17.1046 108.791 16.3195 109.256 15.5925C109.704 14.9191 110.301 14.3587 111.002 13.9557C111.758 13.5194 112.618 13.297 113.491 13.3124C114.437 13.2883 115.371 13.5349 116.182 14.0232C116.935 14.4925 117.541 15.1657 117.927 15.965C118.335 16.7911 118.629 17.6676 118.804 18.5723C118.99 19.5461 119.081 20.5371 119.075 21.5298C119.075 22.4328 119.068 23.1854 119.052 23.7868C119.028 24.5113 118.976 25.2346 118.895 25.955C118.828 26.664 118.704 27.3654 118.523 28.054C118.347 28.6605 118.117 29.25 117.837 29.8155C117.579 30.3753 117.206 30.875 116.744 31.2823C116.266 31.6723 115.725 31.9777 115.145 32.1853C114.441 32.4372 113.697 32.5597 112.949 32.5467C112.126 32.5567 111.319 32.3121 110.64 31.8461C109.978 31.4024 109.427 30.8115 109.031 30.1196C108.614 29.375 108.289 28.5831 108.062 27.7609C107.823 26.9519 107.649 26.1248 107.543 25.2878C107.456 24.5649 107.411 23.8375 107.408 23.1094C107.408 22.2492 107.461 21.3898 107.567 20.5363ZM104.775 32.2084C106.41 33.6982 109.008 34.4432 112.567 34.4432C113.883 34.4517 115.195 34.3005 116.475 33.9913C117.679 33.692 118.826 33.2004 119.873 32.5356C120.926 31.8715 121.846 31.0178 122.587 30.018C123.398 28.8842 124.001 27.6152 124.367 26.2702C124.821 24.6392 125.041 22.9519 125.02 21.259C125.064 19.8959 124.811 18.5397 124.278 17.2843C123.745 16.0289 122.945 14.9045 121.935 13.989C120.057 12.3044 117.332 11.4612 113.759 11.4612C110.186 11.4612 107.243 12.5675 104.93 14.7801C103.795 15.8531 102.899 17.1539 102.301 18.5973C101.703 20.0406 101.417 21.5939 101.462 23.1555C101.462 27.1894 102.564 30.2068 104.772 32.2084H104.775ZM140.021 14.3282C141.222 14.3282 142.078 14.5691 142.589 15.0509C143.064 15.6318 143.365 16.3374 143.455 17.0841C143.644 17.964 143.761 18.8593 143.804 19.7589C143.834 20.5491 143.85 21.5691 143.85 22.8181C143.848 24.4398 143.837 26.0616 143.816 27.6832C143.809 28.1719 143.812 28.7476 143.826 29.4106C143.831 29.9044 143.861 30.3981 143.917 30.8885C143.962 31.2131 144.022 31.5668 144.097 31.9495C144.149 32.2707 144.256 32.5791 144.413 32.8636C144.547 33.09 144.713 33.2959 144.906 33.4744C145.582 34.0875 146.471 34.4114 147.383 34.3765C148.51 34.3765 149.8 33.8042 151.257 32.6611C152.472 31.6502 153.63 30.5721 154.725 29.4319L154.208 28.6631H153.667C152.786 29.3698 151.709 29.7877 150.582 29.8599C150.344 29.8736 150.105 29.8386 149.88 29.7571C149.655 29.6756 149.449 29.5493 149.275 29.3858C149.12 29.2629 148.986 29.1144 148.88 28.9467C148.757 28.6514 148.677 28.3393 148.645 28.0207C148.558 27.3734 148.521 26.7206 148.532 26.0678C148.532 25.5714 148.558 24.7692 148.61 23.6638C148.652 22.8779 148.679 22.0912 148.69 21.3043V19.9494C148.704 18.4894 148.701 17.4779 148.679 16.9124C148.634 16.1408 148.547 15.3723 148.419 14.6101C148.363 13.8914 148.123 13.1994 147.721 12.6008C147.324 12.1707 146.851 11.8187 146.324 11.5628C145.609 11.2169 144.821 11.0501 144.027 11.0767C141.385 11.0767 138.321 12.1608 134.839 14.3282L134.298 14.1248C134.269 13.2947 133.999 12.491 133.521 11.8114C133.078 11.2305 132.316 10.9418 131.235 10.9418C130.587 10.9499 129.945 11.0604 129.332 11.269C128.618 11.5082 127.938 11.8345 127.304 12.2394C126.62 12.6691 126.027 13.0681 125.524 13.4363C125.021 13.8045 124.439 14.2521 123.779 14.7792L124.612 15.8855C124.765 15.7864 124.919 15.6888 125.074 15.5925C125.336 15.4268 125.565 15.2918 125.761 15.1859C125.956 15.0808 126.189 14.9569 126.459 14.8134C126.701 14.6818 126.953 14.5716 127.214 14.4836C127.413 14.4153 127.622 14.3769 127.833 14.3709C128.093 14.3649 128.35 14.4307 128.576 14.5631C128.805 14.7143 128.977 14.9364 129.07 15.1953C129.182 15.4686 129.28 15.7463 129.362 16.0299C129.454 16.4118 129.507 16.8013 129.52 17.1934C129.551 17.706 129.568 18.1195 129.574 18.4347C129.581 18.7499 129.585 19.2241 129.586 19.8571V20.2415C129.586 21.716 129.473 26.2309 129.248 33.7862L129.811 34.1023L134.879 32.6347C134.728 31.988 134.616 29.9488 134.54 26.518C134.466 23.162 134.429 19.8053 134.431 16.4485C137.043 15.0338 138.905 14.3265 140.016 14.3265L140.021 14.3282ZM161.867 22.0253C161.823 22.0384 161.778 22.0464 161.732 22.0492C161.508 22.0492 161.395 21.9663 161.394 21.8015C161.395 21.0522 161.451 20.3056 161.564 19.5658C161.69 18.7593 161.901 17.9683 162.194 17.2062C162.476 16.4348 162.863 15.7053 163.343 15.0389C163.852 14.3609 164.515 13.8125 165.276 13.4379C166.037 13.0633 166.875 12.8731 167.723 12.8827C168.335 12.8487 168.946 12.9744 169.495 13.2476C170.043 13.5208 170.512 13.932 170.854 14.4409C171.564 15.4932 171.933 16.7383 171.912 18.0076C171.909 18.2401 171.835 18.466 171.7 18.6555C171.565 18.845 171.376 18.9891 171.158 19.0686C169.925 19.5653 168.665 19.9951 167.386 20.356C165.586 20.8856 163.791 21.4352 162.003 22.0048C161.958 22.0072 161.912 22.0144 161.868 22.0261H161.867V22.0253ZM175.245 29.0697C172.542 30.7108 170.207 31.5309 168.241 31.5301C166.91 31.5588 165.603 31.1724 164.502 30.4246C163.478 29.737 162.664 28.7801 162.149 27.6593C161.642 26.5347 161.384 25.3135 161.394 24.0798C171.214 21.0258 176.169 19.4983 176.259 19.4983C176.649 19.4182 176.998 19.201 177.241 18.8862C177.485 18.5713 177.608 18.1796 177.588 17.782C177.615 16.6738 177.355 15.5774 176.834 14.599C176.358 13.7239 175.653 12.9943 174.795 12.488C173.93 11.9802 172.992 11.6071 172.014 11.3817C170.953 11.1415 169.867 11.0239 168.779 11.0315C166.829 11.0014 164.894 11.3903 163.107 12.1719C161.53 12.8528 160.137 13.8974 159.042 15.22C158.009 16.4987 157.212 17.9512 156.689 19.5094C156.145 21.1125 155.871 22.7946 155.878 24.4873C155.878 27.9643 156.816 30.5673 158.693 32.2989C160.389 33.8793 162.784 34.6687 165.877 34.6687C167.65 34.6505 169.396 34.2258 170.979 33.4274C172.886 32.4776 174.712 31.3751 176.441 30.1307L175.948 29.2517L175.245 29.0697Z" fill="#7B6E9B"/>
</g>
<defs>
<clipPath id="clip0_120_1157">
<rect width="177.691" height="35.0257" fill="white" transform="translate(0.216797 0.5)"/>
</clipPath>
</defs>
</svg>
