<svg width="128" height="32" viewBox="0 0 128 32" fill="none" xmlns="http://www.w3.org/2000/svg">
<g clip-path="url(#clip0_120_1160)">
<path d="M42.2472 30.6416V0.297363H34.5273L18.3857 23.7116L15.6611 20.3082C20.5324 19.57 23.2571 15.3055 23.2571 10.7538C23.2571 6.40722 20.8627 2.75771 17.6427 1.36351C16.0326 0.666415 13.6382 0.297363 10.4594 0.297363H0.427734V30.6416H7.89992V20.8412H7.98248L15.0418 30.6416H22.9268L25.6102 26.254H34.4447V30.6416H42.2472ZM7.89992 15.5515V7.10431H10.8723C13.8034 7.10431 15.7849 8.58052 15.7849 11.2049C15.7849 13.9933 13.9272 15.5515 10.831 15.5515H7.89992ZM34.4447 20.1031H29.3257L34.3622 11.697H34.4447V20.1031ZM73.5585 30.6416V0.297363H66.0863L66.4165 19.488L54.5271 0.297363H47.798V30.6416H55.2702L55.0638 12.107L66.7881 30.6416H73.5585ZM96.0903 30.6416V23.8346H86.5952V18.6269H95.8013V11.82H86.5952V7.10431H96.0903V0.297363H79.123V30.6416H96.0903ZM127.106 30.6416L116.331 15.4285L126.445 0.297363H118.271L109.643 13.9523H109.56V0.297363H101.758V30.6416H109.56V17.5198H109.643L117.982 30.6416H127.106Z" fill="#7B6E9B"/>
</g>
<defs>
<clipPath id="clip0_120_1160">
<rect width="127.289" height="30.7543" fill="white" transform="translate(0.427734 0.297363)"/>
</clipPath>
</defs>
</svg>
