<svg width="172" height="42" viewBox="0 0 172 42" fill="none" xmlns="http://www.w3.org/2000/svg">
<g clip-path="url(#clip0_120_1162)">
<path d="M46.84 37.6834C44.0038 37.6834 41.8297 37.1981 40.3167 36.2276C38.8303 35.2298 38.0879 33.7733 38.0879 31.8588C38.0879 30.8884 38.4125 30.0922 39.0601 29.472C39.7358 28.8253 40.6003 28.5015 41.6537 28.5015C42.2747 28.5288 42.7472 28.6894 43.0718 28.9867C43.3964 29.2567 43.5587 29.513 43.5587 29.7556C43.5587 29.7821 43.4229 29.8769 43.1529 30.0383C42.883 30.2007 42.6404 30.4433 42.4234 30.7662C42.2073 31.0908 42.0988 31.5351 42.0988 32.1014C42.0988 33.3692 42.4781 34.3533 43.2341 35.0547C44.0175 35.7287 45.2195 36.0653 46.84 36.0653C47.9481 36.0653 48.9202 35.8501 49.7583 35.4186C50.5955 34.9872 51.2302 34.4208 51.6625 33.7195C52.1212 32.9916 52.351 32.2364 52.351 31.4539C52.351 30.4834 52.0674 29.6479 51.5002 28.9466C50.9492 28.2361 50.2602 27.6445 49.4747 27.2072C48.6631 26.722 47.5559 26.1684 46.1515 25.5482C44.5309 24.8204 43.2213 24.16 42.2218 23.5663C41.2174 22.9692 40.3477 22.1705 39.6675 21.2204C38.9661 20.2226 38.615 18.9959 38.615 17.5393C38.615 15.1934 39.4112 13.4404 41.0053 12.2812C42.6267 11.121 44.747 10.5418 47.3671 10.5418C49.42 10.5418 51.2029 10.9733 52.7158 11.8361C54.2561 12.6989 55.0258 13.9667 55.0258 15.6377C55.0258 16.609 54.6875 17.418 54.0126 18.0655C53.3642 18.6857 52.5134 18.9959 51.46 18.9959C50.8381 18.9685 50.3657 18.8199 50.0419 18.5508C49.7173 18.2543 49.555 17.9844 49.555 17.7418C49.555 17.7144 49.7309 17.6205 50.0821 17.4581C50.4605 17.2967 50.7843 17.0541 51.0542 16.7303C51.3515 16.4065 51.5002 15.9614 51.5002 15.3959C51.5002 14.3981 51.1089 13.6156 50.3255 13.0492C49.5686 12.4828 48.5965 12.2 47.4073 12.2C45.7602 12.2 44.5036 12.5913 43.6399 13.3729C42.8018 14.1281 42.3832 15.0721 42.3832 16.2049C42.3832 17.148 42.6395 17.9442 43.1529 18.5909C43.6655 19.2111 44.4899 19.8313 45.6244 20.4516C46.6082 20.9688 47.6082 21.4546 48.6229 21.9081C50.352 22.6898 51.7163 23.4048 52.7158 24.0524C53.745 24.7022 54.6168 25.5727 55.2684 26.6007C55.9707 27.6515 56.3226 28.9602 56.3226 30.5236C56.3226 31.8725 55.8904 33.0993 55.0258 34.2056C54.1886 35.2837 53.0396 36.1328 51.5813 36.753C50.1495 37.3732 48.5691 37.6842 46.84 37.6842V37.6834ZM67.354 37.3604C65.5173 37.3604 64.0582 36.8069 62.9775 35.7014C61.8968 34.596 61.3569 33.1394 61.3569 31.3326V23.849C61.3569 23.1485 61.3296 22.636 61.2758 22.3122C61.2493 21.9893 61.087 21.7056 60.7888 21.463C60.4924 21.2204 59.9926 21.0991 59.2904 21.0991C58.9658 21.0991 58.7232 21.059 58.5608 20.9778C58.3985 20.8702 58.3182 20.6404 58.3182 20.2901C58.3182 20.1278 58.3721 19.98 58.4805 19.8459C58.5882 19.6836 58.7505 19.5896 58.9666 19.5622C60.6684 19.3188 62.1275 18.9685 63.3423 18.5098C63.7207 18.3756 64.0308 18.2945 64.2743 18.2671H64.3956C64.8279 18.2671 65.0449 18.5234 65.0449 19.036V31.2924C65.0449 32.5329 65.4361 33.4905 66.2195 34.1645C66.9789 34.803 67.9424 35.1474 68.9344 35.135C70.2039 35.135 71.2837 34.8249 72.1756 34.2047C73.0675 33.5845 73.6621 32.9643 73.9585 32.3441V23.8499C73.9585 23.1485 73.932 22.6368 73.8782 22.3122C73.8509 21.9893 73.6885 21.7056 73.3912 21.463C73.094 21.2204 72.5942 21.0991 71.892 21.0991C71.5673 21.0991 71.3247 21.059 71.1633 20.9778C71.001 20.8702 70.9198 20.6404 70.9198 20.2901C70.9198 20.1278 70.9736 19.98 71.0821 19.8459C71.1898 19.6836 71.3521 19.5896 71.5682 19.5622C73.2699 19.3188 74.7291 18.9685 75.9447 18.5098C76.3223 18.3756 76.6333 18.2945 76.8759 18.2671H76.998C77.4303 18.2671 77.6464 18.5234 77.6464 19.036V33.0326C77.6464 34.6242 78.7135 35.4195 80.8475 35.4195C81.3062 35.4195 81.536 35.6758 81.536 36.1884C81.536 36.5651 81.3062 36.7949 80.8475 36.8752L74.3233 37.3203C74.1345 37.3203 74.026 37.2528 73.9986 37.1187C73.973 37.0102 73.9585 36.8086 73.9585 36.5121V34.2457H73.8782C73.258 34.8282 72.6228 35.3945 71.9731 35.944C71.487 36.3216 70.8523 36.6454 70.0681 36.9153C69.312 37.2118 68.4073 37.3596 67.354 37.3596V37.3604ZM83.7529 36.9965C83.6585 36.9961 83.5654 36.9739 83.481 36.9317C83.3965 36.8894 83.3229 36.8283 83.2659 36.753C83.1583 36.5916 83.1036 36.4028 83.1036 36.1875C83.131 35.8372 83.2121 35.6339 83.3471 35.581C83.4829 35.4998 83.7255 35.4588 84.0767 35.4588C84.7789 35.4588 85.2786 35.3375 85.5759 35.0949C85.8732 34.8522 86.0355 34.5686 86.062 34.2457C86.1167 33.9211 86.1432 33.4094 86.1432 32.708V23.445C86.1432 22.7445 86.1167 22.2319 86.062 21.9073C86.0355 21.5843 85.8732 21.3007 85.5759 21.059C85.2786 20.8163 84.7789 20.6942 84.0767 20.6942C83.752 20.6942 83.5094 20.654 83.3479 20.5729C83.1856 20.4652 83.1045 20.2363 83.1045 19.8852C83.1045 19.7237 83.1583 19.5751 83.2668 19.4409C83.3744 19.2786 83.5367 19.1846 83.7529 19.1573C85.5084 18.8874 86.9539 18.5371 88.0884 18.1057C88.548 17.9707 88.8581 17.8896 89.0204 17.8631H89.1417C89.574 17.8631 89.7901 18.1194 89.7901 18.6319V21.1393H89.9114C90.8571 20.1953 91.8165 19.4537 92.7887 18.9147C93.7617 18.3483 94.639 18.0655 95.4224 18.0655C96.3143 18.0655 97.0165 18.4021 97.5299 19.0762C98.0699 19.7237 98.3398 20.4789 98.3398 21.3417C98.3398 22.0969 98.1109 22.7709 97.6513 23.3638C97.1917 23.9575 96.5569 24.254 95.7471 24.254C95.3942 24.2602 95.0456 24.1767 94.7339 24.0114C94.4639 23.849 94.3153 23.7149 94.2879 23.6073C94.3153 23.5535 94.4503 23.3912 94.6929 23.1212C94.9363 22.8248 95.0576 22.4882 95.0576 22.1106C95.0576 21.6245 94.9227 21.2341 94.6527 20.9376C94.4092 20.6404 94.0718 20.4926 93.6395 20.4926C93.1808 20.4926 92.5999 20.7215 91.8976 21.1803C91.1946 21.6117 90.506 22.1644 89.8311 22.8384V32.708C89.8311 33.4094 89.8576 33.9211 89.9114 34.2457C89.9661 34.5686 90.1412 34.8522 90.4385 35.0949C90.7358 35.3375 91.2356 35.4588 91.9378 35.4588H92.1813C92.3974 35.4588 92.5589 35.4998 92.6674 35.5801C92.775 35.6613 92.8425 35.8637 92.8698 36.1866C92.8698 36.4028 92.816 36.5916 92.7075 36.753C92.5999 36.9153 92.4375 36.9965 92.2214 36.9965C90.8046 36.9195 89.386 36.8788 87.9671 36.8743C86.7514 36.8743 85.347 36.9153 83.7529 36.9957V36.9965ZM146.686 37.3604C144.849 37.3604 143.215 36.9282 141.783 36.0653C140.351 35.176 139.23 34.0159 138.419 32.5867C137.647 31.1726 137.243 29.5866 137.245 27.9752C137.245 25.9532 137.717 24.2002 138.663 22.7171C139.609 21.2067 140.811 20.0603 142.269 19.2786C143.728 18.4696 145.2 18.0655 146.686 18.0655C148.523 18.0655 150.157 18.5098 151.589 19.3999C152.993 20.2343 154.142 21.4374 154.911 22.8786C155.712 24.2686 156.131 25.8451 156.127 27.449C156.127 29.472 155.641 31.2386 154.669 32.749C153.723 34.232 152.521 35.3776 151.062 36.1866C149.604 36.9692 148.145 37.3604 146.686 37.3604ZM146.686 35.8637C148.523 35.8637 149.86 35.0812 150.697 33.517C151.562 31.9537 151.994 29.9307 151.994 27.4499C151.994 25.1305 151.548 23.2434 150.657 21.7859C149.793 20.3038 148.468 19.5622 146.686 19.5622C144.822 19.5622 143.472 20.3311 142.634 21.868C141.796 23.4048 141.378 25.4132 141.378 27.8949C141.378 30.2135 141.81 32.1288 142.675 33.6383C143.539 35.1222 144.876 35.8637 146.686 35.8637ZM166.338 37.562C165.013 37.562 163.879 37.0768 162.933 36.1063C161.988 35.135 161.515 33.7468 161.515 31.94V20.0475L159.165 20.1286C159.086 20.1293 159.009 20.1113 158.938 20.0761C158.868 20.0409 158.807 19.9895 158.76 19.9262C158.654 19.7713 158.597 19.5878 158.598 19.3999C158.598 19.1573 158.639 18.9557 158.719 18.7934C158.828 18.6046 158.976 18.4969 159.165 18.4696C160.111 18.2817 160.84 17.9844 161.354 17.5803C161.894 17.148 162.286 16.6901 162.528 16.2049C162.772 15.6923 163.069 14.9235 163.42 13.8983C163.555 13.5481 163.852 13.3729 164.311 13.3729C164.5 13.3729 164.69 13.4268 164.878 13.5353C165.067 13.6156 165.162 13.7505 165.162 13.9393L164.878 18.5508L169.62 18.2671H169.701C170.052 18.2671 170.227 18.5234 170.227 19.036C170.227 19.3324 170.173 19.6161 170.065 19.8852C169.984 20.1286 169.876 20.2499 169.741 20.2499L165.203 20.1286V32.4252C165.203 33.3154 165.378 34.0569 165.729 34.6498C166.108 35.2435 166.715 35.5399 167.553 35.5399C168.39 35.5399 169.134 35.3913 169.781 35.0949C170.133 34.9599 170.348 34.8924 170.43 34.8924C170.619 34.8924 170.768 34.9736 170.876 35.135C170.984 35.27 171.092 35.4596 171.2 35.7014C171.229 35.765 171.243 35.8342 171.24 35.9039C171.24 36.0115 171.159 36.1328 170.997 36.2678C170.213 36.7804 169.471 37.1178 168.769 37.2793C168.093 37.4672 167.282 37.562 166.338 37.562ZM100.845 36.753C100.952 36.9153 101.115 36.9957 101.331 36.9957C102.734 36.9186 104.139 36.8782 105.545 36.8743C107.355 36.8743 109.043 36.9153 110.61 36.9957C110.699 36.9977 110.787 36.9763 110.865 36.9338C110.943 36.8912 111.009 36.8289 111.056 36.753C111.163 36.5907 111.217 36.4028 111.217 36.1866C111.191 35.8637 111.123 35.6613 111.015 35.5801C110.934 35.4998 110.772 35.4588 110.529 35.4588H110.285C109.394 35.4588 108.76 35.3913 108.381 35.2563C108.003 35.1222 107.746 34.8787 107.611 34.5285C107.476 34.1509 107.409 33.5443 107.409 32.7088V20.1269H111.704C111.798 20.1265 111.891 20.1043 111.976 20.0623C112.06 20.0202 112.133 19.9593 112.19 19.8843C112.325 19.7228 112.393 19.5341 112.393 19.3179C112.365 18.995 112.284 18.7925 112.149 18.7114C112.042 18.6037 111.866 18.5491 111.623 18.5491H107.409V16.1229C107.409 14.8286 107.463 13.6959 107.57 12.7245C107.671 11.7494 107.99 10.8094 108.502 9.97374C109.016 9.13825 109.813 8.7205 110.894 8.7205C111.017 8.7205 111.138 8.72734 111.254 8.74186C111.239 8.28868 111.269 7.83512 111.343 7.38782C111.288 7.38629 111.232 7.38544 111.177 7.38525C108.8 7.43907 106.949 8.34205 105.626 10.0959C104.329 11.8216 103.681 14.0735 103.681 16.8507V18.5499H101.25C100.898 18.5499 100.655 18.5901 100.52 18.6712C100.385 18.725 100.304 18.9412 100.277 19.3179C100.277 19.5341 100.331 19.7228 100.439 19.8843C100.575 20.0466 100.75 20.1278 100.966 20.1278H103.681V32.708C103.681 33.4367 103.653 33.9621 103.6 34.2859C103.573 34.5823 103.411 34.8522 103.114 35.0949C102.816 35.3375 102.317 35.4588 101.614 35.4588C101.263 35.4588 101.02 35.4998 100.885 35.5801C100.777 35.6339 100.71 35.8364 100.682 36.1866C100.682 36.4028 100.736 36.5916 100.845 36.753Z" fill="#7B6E9B"/>
<path fill-rule="evenodd" clip-rule="evenodd" d="M122.504 8.51046C122.504 9.10113 122.387 9.68589 122.16 10.2314C121.934 10.7769 121.602 11.2724 121.184 11.6896C120.766 12.1069 120.27 12.4377 119.724 12.6633C119.178 12.8888 118.593 13.0046 118.002 13.004C116.81 13.0049 115.665 12.5321 114.821 11.6894C113.977 10.8467 113.502 9.70329 113.5 8.51046C113.501 7.91969 113.618 7.33479 113.844 6.78916C114.071 6.24353 114.402 5.74785 114.82 5.33043C115.238 4.913 115.735 4.58201 116.281 4.35635C116.827 4.13068 117.412 4.01476 118.002 4.01521C118.593 4.01465 119.178 4.13049 119.724 4.35612C120.27 4.58174 120.767 4.91273 121.185 5.33017C121.603 5.74762 121.934 6.24334 122.161 6.78903C122.387 7.33471 122.504 7.91966 122.504 8.51046ZM118.002 10.7572C118.298 10.7576 118.59 10.6997 118.863 10.587C119.136 10.4742 119.384 10.3088 119.593 10.1002C119.802 9.89154 119.968 9.64376 120.081 9.37099C120.195 9.09822 120.253 8.80581 120.253 8.51046C120.253 8.21505 120.195 7.92254 120.082 7.64968C119.969 7.37681 119.803 7.12893 119.594 6.92019C119.385 6.71146 119.136 6.54597 118.863 6.43318C118.59 6.32038 118.298 6.2625 118.002 6.26284C117.406 6.26261 116.834 6.49911 116.412 6.92039C115.99 7.34167 115.752 7.91327 115.751 8.50961C115.752 9.1061 115.989 9.67792 116.412 10.0994C116.834 10.5208 117.406 10.7575 118.002 10.7572ZM116.029 14.9595V36.6327C116.029 36.8745 116.097 37.0633 116.232 37.1982C116.367 37.3605 116.556 37.4409 116.8 37.4409C117.042 37.4409 117.245 37.3332 117.407 37.1179C117.569 36.9291 117.718 36.6455 117.853 36.2679C117.988 35.8903 118.109 35.5939 118.218 35.3778H118.42C120.176 36.6993 122.256 37.3597 124.66 37.3597C126.281 37.3597 127.807 36.9283 129.239 36.0655C130.671 35.2026 131.805 34.0297 132.643 32.5458C133.507 31.0363 133.939 29.3781 133.939 27.5713C133.939 25.7371 133.561 24.1063 132.805 22.6762C132.076 21.2205 131.063 20.0877 129.766 19.2787C128.469 18.4697 127.024 18.0656 125.43 18.0656C124.457 18.0656 123.471 18.2673 122.472 18.6722C121.5 19.0498 120.622 19.629 119.838 20.4115H119.717V15.0329C118.504 15.3478 117.228 15.3223 116.029 14.9595ZM128.267 33.7597C127.267 35.2436 125.943 35.9852 124.296 35.9852C123.431 35.9852 122.662 35.7964 121.986 35.4188C121.337 35.0412 120.81 34.5961 120.405 34.0835C120.027 33.5445 119.798 33.0584 119.717 32.6278V21.9492C120.878 20.708 122.31 20.0877 124.012 20.0877C125.93 20.0877 127.375 20.8429 128.348 22.3533C129.32 23.8364 129.806 25.6295 129.806 27.7328C129.806 30.2409 129.293 32.2502 128.267 33.7597ZM11.232 0.396458C11.5186 0.192261 11.8617 0.0825195 12.2136 0.0825195C12.5655 0.0825195 12.9086 0.192261 13.1952 0.396458C20.5078 5.61102 23.8225 11.8618 24.0318 20.831C24.1283 25.1135 23.7157 29.0347 22.459 32.4219C21.1691 35.8117 18.877 38.9427 15.5026 41.5876C15.2925 41.7508 15.0468 41.8622 14.7856 41.9127C14.5243 41.9631 14.2548 41.9513 13.999 41.878C12.9654 41.5816 12.7894 40.3582 12.2136 39.5962C11.6378 40.3582 11.4635 41.5807 10.4281 41.8772C10.1725 41.9503 9.90314 41.9621 9.64205 41.9116C9.38096 41.8611 9.13545 41.7498 8.92544 41.5867C5.55101 38.9427 3.2581 35.8117 1.96899 32.4219C0.713187 29.0347 0.299713 25.1135 0.396247 20.831C0.604693 11.8618 3.91932 5.61016 11.232 0.396458ZM15.0131 37.7245C17.1249 35.7852 18.3978 33.6709 19.2965 31.2387C20.4284 28.2658 20.7547 24.9802 20.6565 20.9096C20.4942 13.9155 18.8539 9.36475 13.888 5.13945V17.4993C15.8298 17.9982 16.7011 19.8998 16.7011 21.9928C16.7011 24.0875 15.8298 25.9892 13.888 26.4881V36.6002C13.888 36.6002 14.7901 37.4315 15.0131 37.7245ZM9.38504 37.7245C7.27325 35.7852 6.03026 33.6709 5.1307 31.2387C3.99962 28.2658 3.67329 24.9802 3.77238 20.9096C3.9347 13.9301 5.56553 9.35962 10.511 5.13945V17.4993C8.5692 17.9982 7.69697 19.8998 7.69697 21.9928C7.69697 24.0875 8.56835 25.9892 10.511 26.4881V36.6002C10.511 36.6002 9.60032 37.4417 9.38504 37.7245ZM12.1991 19.746C11.6026 19.7456 11.0305 19.982 10.6083 20.4033C10.1862 20.8247 9.9487 21.3964 9.94802 21.9928C9.94802 23.2349 10.9561 24.2404 12.1991 24.2404C12.7955 24.2409 13.3677 24.0044 13.7898 23.5831C14.2119 23.1618 14.4494 22.5901 14.4501 21.9937C14.4501 20.7524 13.442 19.7469 12.1991 19.7469V19.746Z" fill="#7B6E9B"/>
</g>
<defs>
<clipPath id="clip0_120_1162">
<rect width="170.857" height="41.86" fill="white" transform="translate(0.382812 0.0830078)"/>
</clipPath>
</defs>
</svg>
