<svg width="169" height="30" viewBox="0 0 169 30" fill="none" xmlns="http://www.w3.org/2000/svg">
<g clip-path="url(#clip0_120_1165)">
<path d="M19.1034 29.0702C18.1011 29.0971 17.108 28.8712 16.216 28.4132C15.3287 27.9585 14.5719 27.2852 14.017 26.4569C12.2699 28.0617 10.0064 28.9886 7.63551 29.0702C3.37519 29.0702 1.06605 26.1109 1.84602 21.8686C2.43889 18.6787 5.09145 15.4819 5.83297 12.9156C4.39777 12.0545 2.26718 11.4548 1.26852 13.2146L0.613281 12.8225C1.1361 10.8935 2.39959 9.61041 4.2252 9.61041C6.05081 9.61041 7.40058 10.6783 9.14076 9.69498H10.529C9.78831 13.5376 7.91572 16.6113 6.91706 21.9916C6.3088 25.2891 7.43988 26.7875 9.35177 26.7875C10.7641 26.6138 12.0633 25.927 13.0021 24.8577C12.2397 22.9814 11.8553 20.973 11.8711 18.9478C11.8711 14.2748 14.0478 9.349 17.699 9.349C19.5716 9.349 20.9598 10.6321 20.9598 13.676C20.9598 16.7189 19.0881 21.4303 16.7003 24.3887C16.8293 25.0935 17.2044 25.7316 17.7597 26.1938C18.3149 26.6551 19.0163 26.9114 19.7433 26.9182C23.2228 26.9182 25.6567 21.7754 25.6567 17.0188C25.6567 12.2621 23.5662 12.4765 23.7456 10.8705C23.7618 10.6698 23.8174 10.4742 23.9093 10.2951C24.0013 10.1159 24.1277 9.95672 24.2813 9.82654C24.5922 9.56172 24.9972 9.4293 25.4072 9.45664C26.4922 9.45664 27.9188 10.809 27.9188 16.2969C27.9188 23.2901 24.1429 29.0702 19.1026 29.0702H19.1034ZM18.3158 11.7624C17.2309 11.7624 16.1852 15.7049 16.0528 19.7781C16.0022 20.6491 16.0179 21.5227 16.0998 22.3914C17.7359 19.727 18.7343 16.7206 19.0172 13.6068C19.0095 12.2228 18.7523 11.7615 18.3149 11.7615L18.3158 11.7624ZM35.0658 28.8934C34.6108 28.9397 34.1512 28.8869 33.7186 28.7387C33.2876 28.5914 32.894 28.3518 32.5653 28.0365C32.2387 27.723 31.9855 27.3411 31.8238 26.9182C31.6624 26.4972 31.597 26.0454 31.6324 25.5958C31.6324 23.713 34.1141 14.3286 34.1141 12.7841C34.1141 12.0545 33.9424 11.624 33.2872 11.624C32.5561 11.7413 31.8752 12.0697 31.3283 12.5688V11.2395C32.4641 10.2092 33.9302 9.61792 35.463 9.57197C35.9208 9.53125 36.382 9.58952 36.8153 9.74283C37.2476 9.8966 37.6406 10.1401 37.9678 10.4587C38.2941 10.7765 38.547 11.1609 38.7076 11.5864C38.8673 12.0101 38.9323 12.4637 38.8955 12.9148C38.8955 14.7976 36.4155 24.1435 36.4155 25.6804C36.4155 26.4108 36.5864 26.8414 37.2425 26.8414C37.9637 26.7215 38.6397 26.4109 39.2005 25.9418V27.2249C38.069 28.2622 36.6003 28.8549 35.0658 28.8934ZM38.1079 1.77063C38.4479 1.76038 38.7862 1.82189 39.0997 1.95345C39.4124 2.08501 39.6934 2.28149 39.9207 2.53009C40.1488 2.77679 40.3194 3.07102 40.4201 3.39157C40.5209 3.71213 40.5493 4.05104 40.5033 4.38389C40.4194 5.09458 40.0789 5.75016 39.5457 6.22744C39.0079 6.70908 38.3154 6.98215 37.5936 6.99715C37.254 7.00791 36.916 6.94556 36.6026 6.81433C36.2902 6.68382 36.0098 6.48708 35.7808 6.23769C35.5527 5.99099 35.3821 5.69676 35.2814 5.37621C35.1806 5.05565 35.1522 4.71674 35.1982 4.38389C35.2822 3.67323 35.6227 3.01767 36.1558 2.54034C36.6938 2.05907 37.3862 1.78632 38.1079 1.77148V1.77063ZM47.7664 24.8662C47.5486 26.0264 47.681 26.8337 48.508 26.8337C49.2317 26.7222 49.9099 26.4107 50.466 25.9341L50.5437 27.2249C49.408 28.2556 47.9419 28.8472 46.409 28.8934C43.7094 28.8934 42.6646 26.9644 43.0627 24.5664L45.7153 9.69498C46.5969 4.72988 46.2919 4.07635 43.5924 4.07635L43.7641 2.87778L51.9012 1.81676L47.7664 24.8654V24.8662ZM70.6493 24.827C70.4306 25.9879 70.5161 26.8414 71.39 26.8414C72.1154 26.7058 72.7916 26.3794 73.3489 25.8957V27.2249C72.2205 28.2671 70.7498 28.8606 69.2141 28.8934C68.4373 28.9497 67.6672 28.7166 67.0519 28.239C66.4416 27.7661 66.0321 27.0802 65.9055 26.3185C65.2506 27.1716 64.4101 27.8642 63.4477 28.344C62.4804 28.827 61.4166 29.0857 60.3355 29.1009C55.1628 29.1009 52.9861 24.6048 53.9848 19.2015C54.9834 13.799 59.6402 9.38744 64.9068 9.38744C66.1519 9.36136 67.3835 9.64928 68.488 10.2246L68.6204 9.54121C69.6507 4.25318 69.1748 4.07635 66.4753 4.07635L66.6077 2.87778L74.7832 1.81676L70.6485 24.8278L70.6493 24.827ZM65.0392 11.3241C62.0356 11.3241 60.0391 14.8361 59.2506 19.163C58.4237 23.7053 58.9465 26.849 61.7707 26.849C63.6818 26.849 65.8585 24.5425 66.5137 21.0228L68.1215 12.1083C67.1919 11.5535 66.121 11.281 65.0392 11.3241ZM84.3957 29.1078C78.349 29.1078 76.6951 24.8193 77.4366 20.7076L79.41 9.69498C80.3233 4.72304 80.0191 4.0379 77.3196 4.0379L77.4905 2.83934L85.6515 1.81676L83.9976 11.155C85.2737 10.0648 86.8843 9.44385 88.562 9.39513C93.8278 9.39513 96.301 13.8067 95.3493 19.2092C94.3976 24.6125 89.553 29.1086 84.3957 29.1086V29.1078ZM87.2199 11.4317C86.3428 11.4489 85.493 11.7398 84.7895 12.2638C84.0912 12.7837 83.5763 13.5122 83.3193 14.344L82.1019 21.2612C81.3604 25.3728 82.8434 27.0481 84.716 27.0481C87.454 27.0481 89.1549 24.0513 90.0673 19.1246C90.8788 14.7131 90.1382 11.4548 87.2122 11.4548L87.2199 11.4317ZM103.596 21.6994C103.596 24.997 105.203 26.7568 108.276 26.7568C109.837 26.7568 112.107 25.6889 113.543 24.2742L114.151 25.6419C113.117 26.7209 111.878 27.5829 110.506 28.1775C109.129 28.7745 107.647 29.0932 106.147 29.1155C101.583 29.1155 98.4931 25.7726 98.4931 21.2304C98.4931 14.5055 104.149 9.40282 109.588 9.40282C112.895 9.40282 114.76 11.2011 114.76 13.2992C114.721 16.5575 111.585 20.2164 103.596 21.6994ZM109.205 11.3702C106.724 11.3702 104.337 14.9283 103.681 20.0242C108.682 18.8247 110.812 15.4819 110.859 13.3377C110.851 12.1391 110.281 11.3702 109.197 11.3702H109.205ZM132.509 28.8934C131.732 28.9496 130.962 28.7165 130.347 28.239C129.737 27.766 129.328 27.0801 129.201 26.3185C128.57 27.1712 127.75 27.8652 126.804 28.3458C125.854 28.8293 124.806 29.0874 123.74 29.1001C118.653 29.1001 116.477 24.6048 117.498 19.2015C118.52 13.799 123.1 9.39428 128.382 9.39428C129.501 9.38861 130.61 9.60856 131.643 10.041H136.604L133.944 24.827C133.726 25.9879 133.812 26.8414 134.686 26.8414C135.411 26.7056 136.087 26.3792 136.644 25.8957V27.2249C135.515 28.2671 134.045 28.8605 132.509 28.8934ZM128.507 11.3241C125.588 11.3241 123.545 14.8361 122.764 19.163C121.937 23.7053 122.507 26.849 125.105 26.849C127.102 26.849 129.24 24.4511 129.849 21.0228L131.456 12.1083C130.578 11.5535 129.552 11.2799 128.514 11.3241H128.507ZM151.826 14.4516C150.648 14.4516 150.343 13.5529 150.001 12.6072C149.883 12.1292 149.603 11.7073 149.207 11.4147C148.808 11.1196 148.32 10.9709 147.824 10.9935C147.18 10.9594 146.546 11.1645 146.044 11.5693C145.546 11.9701 145.218 12.5439 145.124 13.1762C144.992 14.3372 145.865 15.3205 147.519 16.7343L149.735 18.5326C150.558 19.1458 151.198 19.9731 151.584 20.9246C151.967 21.8728 152.081 22.9065 151.912 23.9129C151.349 27.125 148.651 29.1001 145.038 29.1001C140.685 29.1001 137.907 26.5714 138.211 24.8577C138.282 24.4075 138.513 23.9949 138.863 23.6976C139.213 23.3986 139.66 23.2329 140.123 23.2286C141.254 23.2286 141.683 24.082 142.034 25.196C142.26 25.8367 142.693 26.3852 143.267 26.7576C143.843 27.1304 144.525 27.3053 145.21 27.2557C145.886 27.2878 146.55 27.0694 147.075 26.6423C147.596 26.2189 147.938 25.615 148.034 24.9508C148.206 23.4131 147.254 22.4683 145.468 20.8767L143.291 18.9939C142.526 18.4187 141.928 17.6499 141.558 16.7668C141.191 15.888 141.067 14.9266 141.2 13.9835C141.59 11.9238 143.54 9.37207 148.026 9.37207C151.506 9.37207 153.683 11.301 153.488 12.8456C153.466 13.2716 153.283 13.6733 152.975 13.969C152.668 14.2663 152.257 14.4388 151.826 14.4516ZM167.749 11.7624H163.528L161.485 23.1517C161.047 25.5112 161.398 26.5799 162.701 26.5799C163.396 26.5799 164.488 26.1955 166.048 24.6125L166.134 26.2801C165.425 27.1068 164.547 27.7711 163.558 28.2279C162.565 28.6872 161.486 28.9295 160.392 28.9386C157.435 28.9386 155.953 26.8798 156.655 23.0671L158.699 11.7624H155.399L155.657 10.0025H158.988L159.862 4.90671H164.73L163.817 10.0017H168.038L167.749 11.7615V11.7624Z" fill="#7B6E9B"/>
</g>
<defs>
<clipPath id="clip0_120_1165">
<rect width="167.44" height="29.0457" fill="white" transform="translate(0.613281 0.916992)"/>
</clipPath>
</defs>
</svg>
