<svg width="52" height="52" viewBox="0 0 52 52" fill="none" xmlns="http://www.w3.org/2000/svg">
<path d="M38 48.001C39.1046 48.001 40 48.8964 40 50.001C40 51.1055 39.1046 52.001 38 52.001C36.8954 52.001 36 51.1055 36 50.001C36 48.8964 36.8954 48.001 38 48.001Z" fill="#D6D2DC"/>
<path d="M50 48.001C51.1046 48.001 52 48.8964 52 50.001C52 51.1055 51.1046 52.001 50 52.001C48.8954 52.001 48 51.1055 48 50.001C48 48.8964 48.8954 48.001 50 48.001Z" fill="#D6D2DC"/>
<path d="M14 36.001C15.1046 36.001 16 36.8964 16 38.001C16 39.1055 15.1046 40.001 14 40.001C12.8954 40.001 12 39.1055 12 38.001C12 36.8964 12.8954 36.001 14 36.001Z" fill="#D6D2DC"/>
<path d="M26 36.001C27.1046 36.001 28 36.8964 28 38.001C28 39.1055 27.1046 40.001 26 40.001C24.8954 40.001 24 39.1055 24 38.001C24 36.8964 24.8954 36.001 26 36.001Z" fill="#D6D2DC"/>
<path d="M38 36.001C39.1046 36.001 40 36.8964 40 38.001C40 39.1055 39.1046 40.001 38 40.001C36.8954 40.001 36 39.1055 36 38.001C36 36.8964 36.8954 36.001 38 36.001Z" fill="#D6D2DC"/>
<path d="M50 36.001C51.1046 36.001 52 36.8964 52 38.001C52 39.1055 51.1046 40.001 50 40.001C48.8954 40.001 48 39.1055 48 38.001C48 36.8964 48.8954 36.001 50 36.001Z" fill="#D6D2DC"/>
<path d="M14 24.001C15.1046 24.001 16 24.8964 16 26.001C16 27.1055 15.1046 28.001 14 28.001C12.8954 28.001 12 27.1055 12 26.001C12 24.8964 12.8954 24.001 14 24.001Z" fill="#D6D2DC"/>
<path d="M26 24.001C27.1046 24.001 28 24.8964 28 26.001C28 27.1055 27.1046 28.001 26 28.001C24.8954 28.001 24 27.1055 24 26.001C24 24.8964 24.8954 24.001 26 24.001Z" fill="#D6D2DC"/>
<path d="M38 24.001C39.1046 24.001 40 24.8964 40 26.001C40 27.1055 39.1046 28.001 38 28.001C36.8954 28.001 36 27.1055 36 26.001C36 24.8964 36.8954 24.001 38 24.001Z" fill="#D6D2DC"/>
<path d="M50 24.001C51.1046 24.001 52 24.8964 52 26.001C52 27.1055 51.1046 28.001 50 28.001C48.8954 28.001 48 27.1055 48 26.001C48 24.8964 48.8954 24.001 50 24.001Z" fill="#D6D2DC"/>
<path d="M2 12.001C3.10457 12.001 4 12.8964 4 14.001C4 15.1055 3.10457 16.001 2 16.001C0.895431 16.001 0 15.1055 0 14.001C0 12.8964 0.895431 12.001 2 12.001Z" fill="#D6D2DC"/>
<path d="M14 12.001C15.1046 12.001 16 12.8964 16 14.001C16 15.1055 15.1046 16.001 14 16.001C12.8954 16.001 12 15.1055 12 14.001C12 12.8964 12.8954 12.001 14 12.001Z" fill="#D6D2DC"/>
<path d="M26 12.001C27.1046 12.001 28 12.8964 28 14.001C28 15.1055 27.1046 16.001 26 16.001C24.8954 16.001 24 15.1055 24 14.001C24 12.8964 24.8954 12.001 26 12.001Z" fill="#D6D2DC"/>
<path d="M38 12.001C39.1046 12.001 40 12.8964 40 14.001C40 15.1055 39.1046 16.001 38 16.001C36.8954 16.001 36 15.1055 36 14.001C36 12.8964 36.8954 12.001 38 12.001Z" fill="#D6D2DC"/>
<path d="M50 12.001C51.1046 12.001 52 12.8964 52 14.001C52 15.1055 51.1046 16.001 50 16.001C48.8954 16.001 48 15.1055 48 14.001C48 12.8964 48.8954 12.001 50 12.001Z" fill="#D6D2DC"/>
<path d="M2 0.000970364C3.10457 0.000970364 4 0.896402 4 2.00097C4 3.10554 3.10457 4.00097 2 4.00097C0.895431 4.00097 0 3.10554 0 2.00097C0 0.896402 0.895431 0.000970364 2 0.000970364Z" fill="#D6D2DC"/>
<path d="M14 0.000970364C15.1046 0.000970364 16 0.896402 16 2.00097C16 3.10554 15.1046 4.00097 14 4.00097C12.8954 4.00097 12 3.10554 12 2.00097C12 0.896402 12.8954 0.000970364 14 0.000970364Z" fill="#D6D2DC"/>
<path d="M26 0.000970364C27.1046 0.000970364 28 0.896402 28 2.00097C28 3.10554 27.1046 4.00097 26 4.00097C24.8954 4.00097 24 3.10554 24 2.00097C24 0.896402 24.8954 0.000970364 26 0.000970364Z" fill="#D6D2DC"/>
<path d="M38 0.000970364C39.1046 0.000970364 40 0.896402 40 2.00097C40 3.10554 39.1046 4.00097 38 4.00097C36.8954 4.00097 36 3.10554 36 2.00097C36 0.896402 36.8954 0.000970364 38 0.000970364Z" fill="#D6D2DC"/>
<path d="M50 0.000970364C51.1046 0.000970364 52 0.896402 52 2.00097C52 3.10554 51.1046 4.00097 50 4.00097C48.8954 4.00097 48 3.10554 48 2.00097C48 0.896402 48.8954 0.000970364 50 0.000970364Z" fill="#D6D2DC"/>
</svg>
