<svg width="52" height="52" viewBox="0 0 52 52" fill="none" xmlns="http://www.w3.org/2000/svg">
<path d="M38 4.00024C39.1046 4.00024 40 3.10481 40 2.00024C40 0.895674 39.1046 0.000244141 38 0.000244141C36.8954 0.000244141 36 0.895674 36 2.00024C36 3.10481 36.8954 4.00024 38 4.00024Z" fill="#D6D2DC"/>
<path d="M50 4.00024C51.1046 4.00024 52 3.10481 52 2.00024C52 0.895674 51.1046 0.000244141 50 0.000244141C48.8954 0.000244141 48 0.895674 48 2.00024C48 3.10481 48.8954 4.00024 50 4.00024Z" fill="#D6D2DC"/>
<path d="M14 16.0002C15.1046 16.0002 16 15.1048 16 14.0002C16 12.8957 15.1046 12.0002 14 12.0002C12.8954 12.0002 12 12.8957 12 14.0002C12 15.1048 12.8954 16.0002 14 16.0002Z" fill="#D6D2DC"/>
<path d="M26 16.0002C27.1046 16.0002 28 15.1048 28 14.0002C28 12.8957 27.1046 12.0002 26 12.0002C24.8954 12.0002 24 12.8957 24 14.0002C24 15.1048 24.8954 16.0002 26 16.0002Z" fill="#D6D2DC"/>
<path d="M38 16.0002C39.1046 16.0002 40 15.1048 40 14.0002C40 12.8957 39.1046 12.0002 38 12.0002C36.8954 12.0002 36 12.8957 36 14.0002C36 15.1048 36.8954 16.0002 38 16.0002Z" fill="#D6D2DC"/>
<path d="M50 16.0002C51.1046 16.0002 52 15.1048 52 14.0002C52 12.8957 51.1046 12.0002 50 12.0002C48.8954 12.0002 48 12.8957 48 14.0002C48 15.1048 48.8954 16.0002 50 16.0002Z" fill="#D6D2DC"/>
<path d="M14 28.0002C15.1046 28.0002 16 27.1048 16 26.0002C16 24.8957 15.1046 24.0002 14 24.0002C12.8954 24.0002 12 24.8957 12 26.0002C12 27.1048 12.8954 28.0002 14 28.0002Z" fill="#D6D2DC"/>
<path d="M26 28.0002C27.1046 28.0002 28 27.1048 28 26.0002C28 24.8957 27.1046 24.0002 26 24.0002C24.8954 24.0002 24 24.8957 24 26.0002C24 27.1048 24.8954 28.0002 26 28.0002Z" fill="#D6D2DC"/>
<path d="M38 28.0002C39.1046 28.0002 40 27.1048 40 26.0002C40 24.8957 39.1046 24.0002 38 24.0002C36.8954 24.0002 36 24.8957 36 26.0002C36 27.1048 36.8954 28.0002 38 28.0002Z" fill="#D6D2DC"/>
<path d="M50 28.0002C51.1046 28.0002 52 27.1048 52 26.0002C52 24.8957 51.1046 24.0002 50 24.0002C48.8954 24.0002 48 24.8957 48 26.0002C48 27.1048 48.8954 28.0002 50 28.0002Z" fill="#D6D2DC"/>
<path d="M2 40.0002C3.10457 40.0002 4 39.1048 4 38.0002C4 36.8957 3.10457 36.0002 2 36.0002C0.89543 36.0002 0 36.8957 0 38.0002C0 39.1048 0.89543 40.0002 2 40.0002Z" fill="#D6D2DC"/>
<path d="M14 40.0002C15.1046 40.0002 16 39.1048 16 38.0002C16 36.8957 15.1046 36.0002 14 36.0002C12.8954 36.0002 12 36.8957 12 38.0002C12 39.1048 12.8954 40.0002 14 40.0002Z" fill="#D6D2DC"/>
<path d="M26 40.0002C27.1046 40.0002 28 39.1048 28 38.0002C28 36.8957 27.1046 36.0002 26 36.0002C24.8954 36.0002 24 36.8957 24 38.0002C24 39.1048 24.8954 40.0002 26 40.0002Z" fill="#D6D2DC"/>
<path d="M38 40.0002C39.1046 40.0002 40 39.1048 40 38.0002C40 36.8957 39.1046 36.0002 38 36.0002C36.8954 36.0002 36 36.8957 36 38.0002C36 39.1048 36.8954 40.0002 38 40.0002Z" fill="#D6D2DC"/>
<path d="M50 40.0002C51.1046 40.0002 52 39.1048 52 38.0002C52 36.8957 51.1046 36.0002 50 36.0002C48.8954 36.0002 48 36.8957 48 38.0002C48 39.1048 48.8954 40.0002 50 40.0002Z" fill="#D6D2DC"/>
<path d="M2 52.0002C3.10457 52.0002 4 51.1048 4 50.0002C4 48.8957 3.10457 48.0002 2 48.0002C0.89543 48.0002 0 48.8957 0 50.0002C0 51.1048 0.89543 52.0002 2 52.0002Z" fill="#D6D2DC"/>
<path d="M14 52.0002C15.1046 52.0002 16 51.1048 16 50.0002C16 48.8957 15.1046 48.0002 14 48.0002C12.8954 48.0002 12 48.8957 12 50.0002C12 51.1048 12.8954 52.0002 14 52.0002Z" fill="#D6D2DC"/>
<path d="M26 52.0002C27.1046 52.0002 28 51.1048 28 50.0002C28 48.8957 27.1046 48.0002 26 48.0002C24.8954 48.0002 24 48.8957 24 50.0002C24 51.1048 24.8954 52.0002 26 52.0002Z" fill="#D6D2DC"/>
<path d="M38 52.0002C39.1046 52.0002 40 51.1048 40 50.0002C40 48.8957 39.1046 48.0002 38 48.0002C36.8954 48.0002 36 48.8957 36 50.0002C36 51.1048 36.8954 52.0002 38 52.0002Z" fill="#D6D2DC"/>
<path d="M50 52.0002C51.1046 52.0002 52 51.1048 52 50.0002C52 48.8957 51.1046 48.0002 50 48.0002C48.8954 48.0002 48 48.8957 48 50.0002C48 51.1048 48.8954 52.0002 50 52.0002Z" fill="#D6D2DC"/>
</svg>
