<svg width="52" height="52" viewBox="0 0 52 52" fill="none" xmlns="http://www.w3.org/2000/svg">
<path d="M14 48C12.8955 48 12 48.8954 12 50C12 51.1046 12.8955 52 14 52C15.1046 52 16 51.1046 16 50C16 48.8954 15.1046 48 14 48Z" fill="#D6D2DC"/>
<path d="M2.00003 48C0.895462 48 3.09944e-05 48.8954 3.09944e-05 50C3.09944e-05 51.1046 0.895462 52 2.00003 52C3.1046 52 4.00003 51.1046 4.00003 50C4.00003 48.8954 3.1046 48 2.00003 48Z" fill="#D6D2DC"/>
<path d="M38 36C36.8954 36 36 36.8954 36 38C36 39.1046 36.8954 40 38 40C39.1046 40 40 39.1046 40 38C40 36.8954 39.1046 36 38 36Z" fill="#D6D2DC"/>
<path d="M26 36C24.8954 36 24 36.8954 24 38C24 39.1046 24.8954 40 26 40C27.1046 40 28 39.1046 28 38C28 36.8954 27.1046 36 26 36Z" fill="#D6D2DC"/>
<path d="M14 36C12.8955 36 12 36.8954 12 38C12 39.1046 12.8955 40 14 40C15.1046 40 16 39.1046 16 38C16 36.8954 15.1046 36 14 36Z" fill="#D6D2DC"/>
<path d="M2.00003 36C0.895462 36 3.09944e-05 36.8954 3.09944e-05 38C3.09944e-05 39.1046 0.895462 40 2.00003 40C3.1046 40 4.00003 39.1046 4.00003 38C4.00003 36.8954 3.1046 36 2.00003 36Z" fill="#D6D2DC"/>
<path d="M38 24C36.8954 24 36 24.8954 36 26C36 27.1046 36.8954 28 38 28C39.1046 28 40 27.1046 40 26C40 24.8954 39.1046 24 38 24Z" fill="#D6D2DC"/>
<path d="M26 24C24.8954 24 24 24.8954 24 26C24 27.1046 24.8954 28 26 28C27.1046 28 28 27.1046 28 26C28 24.8954 27.1046 24 26 24Z" fill="#D6D2DC"/>
<path d="M14 24C12.8955 24 12 24.8954 12 26C12 27.1046 12.8955 28 14 28C15.1046 28 16 27.1046 16 26C16 24.8954 15.1046 24 14 24Z" fill="#D6D2DC"/>
<path d="M2.00003 24C0.895462 24 3.09944e-05 24.8954 3.09944e-05 26C3.09944e-05 27.1046 0.895462 28 2.00003 28C3.1046 28 4.00003 27.1046 4.00003 26C4.00003 24.8954 3.1046 24 2.00003 24Z" fill="#D6D2DC"/>
<path d="M50 12C48.8954 12 48 12.8955 48 14C48 15.1046 48.8954 16 50 16C51.1046 16 52 15.1046 52 14C52 12.8955 51.1046 12 50 12Z" fill="#D6D2DC"/>
<path d="M38 12C36.8954 12 36 12.8955 36 14C36 15.1046 36.8954 16 38 16C39.1046 16 40 15.1046 40 14C40 12.8955 39.1046 12 38 12Z" fill="#D6D2DC"/>
<path d="M26 12C24.8954 12 24 12.8955 24 14C24 15.1046 24.8954 16 26 16C27.1046 16 28 15.1046 28 14C28 12.8955 27.1046 12 26 12Z" fill="#D6D2DC"/>
<path d="M14 12C12.8955 12 12 12.8955 12 14C12 15.1046 12.8955 16 14 16C15.1046 16 16 15.1046 16 14C16 12.8955 15.1046 12 14 12Z" fill="#D6D2DC"/>
<path d="M2.00003 12C0.895462 12 3.09944e-05 12.8955 3.09944e-05 14C3.09944e-05 15.1046 0.895462 16 2.00003 16C3.1046 16 4.00003 15.1046 4.00003 14C4.00003 12.8955 3.1046 12 2.00003 12Z" fill="#D6D2DC"/>
<path d="M50 3.09944e-05C48.8954 3.09944e-05 48 0.895462 48 2.00003C48 3.1046 48.8954 4.00003 50 4.00003C51.1046 4.00003 52 3.1046 52 2.00003C52 0.895462 51.1046 3.09944e-05 50 3.09944e-05Z" fill="#D6D2DC"/>
<path d="M38 3.09944e-05C36.8954 3.09944e-05 36 0.895462 36 2.00003C36 3.1046 36.8954 4.00003 38 4.00003C39.1046 4.00003 40 3.1046 40 2.00003C40 0.895462 39.1046 3.09944e-05 38 3.09944e-05Z" fill="#D6D2DC"/>
<path d="M26 3.09944e-05C24.8954 3.09944e-05 24 0.895462 24 2.00003C24 3.1046 24.8954 4.00003 26 4.00003C27.1046 4.00003 28 3.1046 28 2.00003C28 0.895462 27.1046 3.09944e-05 26 3.09944e-05Z" fill="#D6D2DC"/>
<path d="M14 3.09944e-05C12.8955 3.09944e-05 12 0.895462 12 2.00003C12 3.1046 12.8955 4.00003 14 4.00003C15.1046 4.00003 16 3.1046 16 2.00003C16 0.895462 15.1046 3.09944e-05 14 3.09944e-05Z" fill="#D6D2DC"/>
<path d="M2.00003 3.09944e-05C0.895462 3.09944e-05 3.09944e-05 0.895462 3.09944e-05 2.00003C3.09944e-05 3.1046 0.895462 4.00003 2.00003 4.00003C3.1046 4.00003 4.00003 3.1046 4.00003 2.00003C4.00003 0.895462 3.1046 3.09944e-05 2.00003 3.09944e-05Z" fill="#D6D2DC"/>
</svg>
