<svg width="160" height="54" viewBox="0 0 160 54" fill="none" xmlns="http://www.w3.org/2000/svg">
<path d="M64.7045 29.755V33.0249H54.0197V20.1776H64.4643V23.4475H58.2812V24.9508H63.7127V28.0735H58.2812V29.7627H64.7045V29.755Z" fill="#FBF9FF"/>
<path d="M77.8449 33.0249L77.8062 27.1669L75.0168 31.8626H73.1108L70.3214 27.3684V33.0249H66.3776V20.1776H69.9417L74.1258 27.0274L78.2014 20.1776H81.7655L81.8043 33.0249H77.8449Z" fill="#FBF9FF"/>
<path d="M95.9226 25.0205C95.9226 27.996 93.6446 29.8634 90.0649 29.8634H88.2131V33.0172H83.8819V20.1698H90.0649C93.6524 20.1776 95.9226 22.045 95.9226 25.0205ZM91.5604 25.0205C91.5604 24.0829 90.9947 23.5173 89.8015 23.5173H88.2209V26.5238H89.8015C90.987 26.5238 91.5604 25.9581 91.5604 25.0205Z" fill="#FBF9FF"/>
<path d="M97.0069 26.6013C97.0069 22.7114 100.075 19.8831 104.259 19.8831C108.443 19.8831 111.512 22.7114 111.512 26.6013C111.512 30.4911 108.443 33.3194 104.259 33.3194C100.075 33.3194 97.0069 30.4911 97.0069 26.6013ZM107.142 26.6013C107.142 24.6021 105.855 23.3855 104.259 23.3855C102.663 23.3855 101.377 24.5943 101.377 26.6013C101.377 28.6004 102.663 29.817 104.259 29.817C105.855 29.817 107.142 28.6004 107.142 26.6013Z" fill="#FBF9FF"/>
<path d="M133.532 20.1776L129.417 33.0249H124.776L122.7 26.1596L120.515 33.0249H115.874L111.759 20.1776H116.222L118.461 27.4846L120.832 20.1776H124.815L127.054 27.5776L129.425 20.1776H133.532Z" fill="#FBF9FF"/>
<path d="M145.169 29.755V33.0249H134.485V20.1776H144.929V23.4475H138.746V24.9508H144.178V28.0735H138.746V29.7627H145.169V29.755Z" fill="#FBF9FF"/>
<path d="M152.344 29.7937H151.167V33.0249H146.835V20.1776H153.018C156.598 20.1776 158.876 22.0527 158.876 25.0205C158.876 26.8724 157.993 28.2672 156.451 29.0576L159.147 33.0249H154.522L152.344 29.7937ZM152.747 23.5173H151.167V26.5238H152.747C153.941 26.5238 154.506 25.9581 154.506 25.0205C154.506 24.0829 153.941 23.5173 152.747 23.5173Z" fill="#FBF9FF"/>
<path d="M57.7696 40.0299C57.7696 41.014 57.0413 41.6184 55.8636 41.6184H54.8563V42.9124H54.0273V38.4414H55.8636C57.0413 38.4337 57.7696 39.0381 57.7696 40.0299ZM56.9328 40.0299C56.9328 39.4642 56.5532 39.1388 55.8248 39.1388H54.8563V40.9132H55.8248C56.5532 40.9132 56.9328 40.5878 56.9328 40.0299Z" fill="#FBF9FF"/>
<path d="M62.5506 41.8741H60.3114L59.8697 42.9124H59.0174L61.032 38.4414H61.8533L63.8755 42.9124H63L62.5506 41.8741ZM62.2794 41.2232L61.4348 39.2705L60.5981 41.2232H62.2794Z" fill="#FBF9FF"/>
<path d="M65.7193 38.4337H66.5484V42.2073H68.8883V42.9124H65.7193V38.4337Z" fill="#FBF9FF"/>
<path d="M74.1729 42.215V42.9124H70.8179V38.4414H74.0799V39.1388H71.6469V40.3011H73.8087V40.983H71.6469V42.215H74.1729Z" fill="#FBF9FF"/>
<path d="M76.0009 42.4398L76.2876 41.7966C76.644 42.0833 77.2174 42.2848 77.7598 42.2848C78.4571 42.2848 78.7515 42.0368 78.7515 41.7036C78.7515 40.7351 76.0939 41.3704 76.0939 39.7122C76.0939 38.9916 76.6672 38.3794 77.8992 38.3794C78.4338 38.3794 78.9995 38.5189 79.3869 38.7746L79.1235 39.4178C78.7205 39.1776 78.2789 39.0691 77.8915 39.0691C77.2019 39.0691 76.923 39.3403 76.923 39.6735C76.923 40.6266 79.5728 40.0067 79.5728 41.6494C79.5728 42.3623 78.9917 42.9744 77.7675 42.9744C77.0702 42.9744 76.3728 42.7575 76.0009 42.4398Z" fill="#FBF9FF"/>
<path d="M81.0375 39.1388V38.4337H84.8341V39.1388H83.3543V42.9124H82.5252V39.1388H81.0375Z" fill="#FBF9FF"/>
<path d="M89.6611 42.9124L88.7467 41.6029C88.6925 41.6106 88.6305 41.6106 88.5763 41.6106H87.569V42.9124H86.74V38.4414H88.5763C89.754 38.4414 90.4824 39.0458 90.4824 40.0299C90.4824 40.704 90.1337 41.2077 89.5293 41.4402L90.5599 42.9124H89.6611ZM88.5376 39.1388H87.569V40.921H88.5376C89.2659 40.921 89.6456 40.5878 89.6456 40.0299C89.6456 39.4643 89.2659 39.1388 88.5376 39.1388Z" fill="#FBF9FF"/>
<path d="M95.5885 41.8741H93.3493L92.9076 42.9124H92.0553L94.0698 38.4414H94.8912L96.9135 42.9124H96.0456L95.5885 41.8741ZM95.3096 41.2232L94.465 39.2705L93.6282 41.2232H95.3096Z" fill="#FBF9FF"/>
<path d="M98.3701 42.4398L98.6568 41.7966C99.0132 42.0833 99.5865 42.2848 100.137 42.2848C100.834 42.2848 101.128 42.0368 101.128 41.7036C101.128 40.7351 98.4708 41.3704 98.4708 39.7122C98.4708 38.9916 99.0442 38.3794 100.276 38.3794C100.811 38.3794 101.376 38.5189 101.764 38.7746L101.5 39.4178C101.097 39.1776 100.656 39.0691 100.268 39.0691C99.5788 39.0691 99.2999 39.3403 99.2999 39.6735C99.2999 40.6266 101.95 40.0067 101.95 41.6494C101.95 42.3623 101.369 42.9744 100.144 42.9744C99.4393 42.9744 98.742 42.7575 98.3701 42.4398Z" fill="#FBF9FF"/>
<path d="M107.088 38.4337H109.04C110.489 38.4337 111.481 39.3248 111.481 40.673C111.481 42.0136 110.489 42.9124 109.04 42.9124H107.088V38.4337ZM109.009 42.2073C110.009 42.2073 110.652 41.6029 110.652 40.673C110.652 39.7432 110.009 39.1388 109.009 39.1388H107.925V42.2073H109.009Z" fill="#FBF9FF"/>
<path d="M116.997 42.215V42.9124H113.642V38.4414H116.904V39.1388H114.471V40.3011H116.633V40.983H114.471V42.215H116.997Z" fill="#FBF9FF"/>
<path d="M122.243 38.4337H123.072V42.9047H122.243V38.4337Z" fill="#FBF9FF"/>
<path d="M129.665 42.9124L129.657 39.9447L128.185 42.401H127.813L126.341 39.9834V42.9124H125.551V38.4414H126.233L128.007 41.4092L129.75 38.4414H130.432L130.44 42.9124H129.665Z" fill="#FBF9FF"/>
<path d="M136.685 40.0299C136.685 41.014 135.956 41.6184 134.779 41.6184H133.771V42.9124H132.942V38.4414H134.779C135.956 38.4337 136.685 39.0381 136.685 40.0299ZM135.848 40.0299C135.848 39.4642 135.468 39.1388 134.74 39.1388H133.771V40.9132H134.74C135.468 40.9132 135.848 40.5878 135.848 40.0299Z" fill="#FBF9FF"/>
<path d="M141.474 41.8741H139.235L138.793 42.9124H137.941L139.955 38.4414H140.777L142.799 42.9124H141.931L141.474 41.8741ZM141.195 41.2232L140.351 39.2705L139.514 41.2232H141.195Z" fill="#FBF9FF"/>
<path d="M144.247 40.6731C144.247 39.3403 145.27 38.3717 146.642 38.3717C147.37 38.3717 147.997 38.6352 148.408 39.1156L147.873 39.6192C147.548 39.2705 147.145 39.0923 146.68 39.0923C145.75 39.0923 145.084 39.7432 145.084 40.6653C145.084 41.5874 145.758 42.2383 146.68 42.2383C147.145 42.2383 147.548 42.0678 147.873 41.7114L148.408 42.2228C147.99 42.711 147.37 42.9667 146.634 42.9667C145.27 42.9744 144.247 42.0058 144.247 40.6731Z" fill="#FBF9FF"/>
<path d="M151.352 39.1388H149.872V38.4337H153.669V39.1388H152.181V42.9124H151.352V39.1388Z" fill="#FBF9FF"/>
<path d="M155.181 40.6731C155.181 39.348 156.203 38.3717 157.59 38.3717C158.977 38.3717 160 39.3403 160 40.6731C160 41.9981 158.977 42.9744 157.59 42.9744C156.203 42.9744 155.181 41.9981 155.181 40.6731ZM159.163 40.6731C159.163 39.7587 158.489 39.1001 157.59 39.1001C156.691 39.1001 156.017 39.7587 156.017 40.6731C156.017 41.5874 156.691 42.2461 157.59 42.2461C158.497 42.2461 159.163 41.5874 159.163 40.6731Z" fill="#FBF9FF"/>
<path d="M43.1026 23.3927C43.1026 32.8384 35.8735 38.7894 24.4992 38.7894H18.6105L18.7035 48.824H4.84966V8.00381H24.4992C35.8658 7.99606 43.1026 13.9393 43.1026 23.3927ZM29.2178 23.3927C29.2178 20.4172 27.4125 18.6118 23.6159 18.6118H18.6027V28.1737H23.6159C27.4125 28.1737 29.2178 26.3682 29.2178 23.3927Z" fill="#FBF9FF"/>
<path d="M37.5085 48.8088C40.3157 48.8088 42.5914 46.533 42.5914 43.7256C42.5914 40.9183 40.3157 38.6425 37.5085 38.6425C34.7013 38.6425 32.4257 40.9183 32.4257 43.7256C32.4257 46.533 34.7013 48.8088 37.5085 48.8088Z" fill="#FBF9FF"/>
<path d="M47.9305 26.5238C30.7294 30.6539 27.6999 34.009 23.9653 53.0476C20.2306 34.0013 17.2088 30.6539 0 26.5238C17.201 22.3937 20.2306 19.0386 23.9653 0C27.7076 19.0463 30.7294 22.3937 47.9305 26.5238Z" fill="url(#paint0_linear_340_448)"/>
<defs>
<linearGradient id="paint0_linear_340_448" x1="10.7102" y1="13.2624" x2="37.2359" y2="39.7865" gradientUnits="userSpaceOnUse">
<stop stop-color="#E83A8D"/>
<stop offset="0.1625" stop-color="#C73C8C"/>
<stop offset="0.3921" stop-color="#973D89"/>
<stop offset="0.5991" stop-color="#6B3D87"/>
<stop offset="0.7757" stop-color="#483B85"/>
<stop offset="0.9151" stop-color="#2F3B83"/>
<stop offset="1" stop-color="#223A83"/>
</linearGradient>
</defs>
</svg>
