<svg width="160" height="53" viewBox="0 0 160 53" fill="none" xmlns="http://www.w3.org/2000/svg">
<path d="M64.7051 29.7172V32.983H54.0203V20.1519H64.4649V23.4177H58.2818V24.9191H63.7133V28.0378H58.2818V29.7249H64.7051V29.7172Z" fill="white"/>
<path d="M77.846 32.983L77.8073 27.1324L75.0179 31.8221H73.1119L70.3225 27.3336V32.983H66.3787V20.1519H69.9429L74.1269 26.9931L78.2024 20.1519H81.7666L81.8053 32.983H77.846Z" fill="white"/>
<path d="M95.9225 24.9887C95.9225 27.9604 93.6445 29.8255 90.0649 29.8255H88.2131V32.9752H83.8818V20.1442H90.0649C93.6523 20.1519 95.9225 22.017 95.9225 24.9887ZM91.5603 24.9887C91.5603 24.0523 90.9946 23.4874 89.8014 23.4874H88.2208V26.4901H89.8014C90.9869 26.4901 91.5603 25.9251 91.5603 24.9887Z" fill="white"/>
<path d="M97.0072 26.5675C97.0072 22.6826 100.076 19.8579 104.26 19.8579C108.444 19.8579 111.512 22.6826 111.512 26.5675C111.512 30.4524 108.444 33.277 104.26 33.277C100.076 33.277 97.0072 30.4524 97.0072 26.5675ZM107.142 26.5675C107.142 24.5708 105.856 23.3558 104.26 23.3558C102.663 23.3558 101.377 24.5631 101.377 26.5675C101.377 28.5641 102.663 29.7791 104.26 29.7791C105.856 29.7791 107.142 28.5641 107.142 26.5675Z" fill="white"/>
<path d="M133.532 20.1519L129.418 32.983H124.777L122.7 26.1263L120.515 32.983H115.874L111.76 20.1519H116.223L118.462 27.4497L120.833 20.1519H124.815L127.055 27.5425L129.426 20.1519H133.532Z" fill="white"/>
<path d="M145.17 29.7172V32.983H134.485V20.1519H144.93V23.4177H138.747V24.9191H144.178V28.0378H138.747V29.7249H145.17V29.7172Z" fill="white"/>
<path d="M152.345 29.7559H151.167V32.983H146.836V20.1519H153.019C156.599 20.1519 158.877 22.0247 158.877 24.9887C158.877 26.8383 157.993 28.2313 156.451 29.0207L159.148 32.983H154.522L152.345 29.7559ZM152.748 23.4874H151.167V26.4901H152.748C153.941 26.4901 154.507 25.9251 154.507 24.9887C154.507 24.0523 153.941 23.4874 152.748 23.4874Z" fill="white"/>
<path d="M57.7705 39.9789C57.7705 40.9617 57.0421 41.5653 55.8644 41.5653H54.8571V42.8577H54.0281V38.3924H55.8644C57.0421 38.3847 57.7705 38.9883 57.7705 39.9789ZM56.9337 39.9789C56.9337 39.4139 56.554 39.0889 55.8256 39.0889H54.8571V40.8611H55.8256C56.554 40.8611 56.9337 40.5361 56.9337 39.9789Z" fill="white"/>
<path d="M62.5511 41.8207H60.3118L59.8702 42.8577H59.0179L61.0324 38.3924H61.8538L63.876 42.8577H63.0005L62.5511 41.8207ZM62.2799 41.1707L61.4353 39.2205L60.5985 41.1707H62.2799Z" fill="white"/>
<path d="M65.7201 38.3847H66.5491V42.1535H68.8891V42.8577H65.7201V38.3847Z" fill="white"/>
<path d="M74.1734 42.1612V42.8577H70.8184V38.3924H74.0804V39.0889H71.6475V40.2497H73.8092V40.9308H71.6475V42.1612H74.1734Z" fill="white"/>
<path d="M76.0019 42.3857L76.2886 41.7433C76.645 42.0297 77.2184 42.2309 77.7608 42.2309C78.4581 42.2309 78.7525 41.9832 78.7525 41.6505C78.7525 40.6831 76.0949 41.3177 76.0949 39.6616C76.0949 38.9419 76.6683 38.3305 77.9002 38.3305C78.4348 38.3305 79.0005 38.4698 79.3879 38.7252L79.1245 39.3675C78.7215 39.1276 78.2799 39.0193 77.8925 39.0193C77.2029 39.0193 76.924 39.2901 76.924 39.6229C76.924 40.5748 79.5738 39.9557 79.5738 41.5963C79.5738 42.3083 78.9927 42.9196 77.7685 42.9196C77.0712 42.9196 76.3738 42.703 76.0019 42.3857Z" fill="white"/>
<path d="M81.0382 39.0889V38.3847H84.8348V39.0889H83.355V42.8577H82.5259V39.0889H81.0382Z" fill="white"/>
<path d="M89.662 42.8577L88.7477 41.5499C88.6934 41.5576 88.6315 41.5576 88.5772 41.5576H87.57V42.8577H86.7409V38.3924H88.5772C89.755 38.3924 90.4833 38.996 90.4833 39.9789C90.4833 40.6522 90.1346 41.1552 89.5302 41.3873L90.5608 42.8577H89.662ZM88.5385 39.0889H87.57V40.8688H88.5385C89.2668 40.8688 89.6465 40.5361 89.6465 39.9789C89.6465 39.4139 89.2668 39.0889 88.5385 39.0889Z" fill="white"/>
<path d="M95.5893 41.8207H93.3501L92.9085 42.8577H92.0562L94.0707 38.3924H94.892L96.9143 42.8577H96.0465L95.5893 41.8207ZM95.3104 41.1707L94.4659 39.2205L93.629 41.1707H95.3104Z" fill="white"/>
<path d="M98.3709 42.3857L98.6576 41.7433C99.014 42.0297 99.5874 42.2309 100.137 42.2309C100.835 42.2309 101.129 41.9832 101.129 41.6505C101.129 40.6831 98.4716 41.3177 98.4716 39.6616C98.4716 38.9419 99.045 38.3305 100.277 38.3305C100.812 38.3305 101.377 38.4698 101.765 38.7252L101.501 39.3675C101.098 39.1276 100.657 39.0193 100.269 39.0193C99.5796 39.0193 99.3007 39.2901 99.3007 39.6229C99.3007 40.5748 101.951 39.9557 101.951 41.5963C101.951 42.3083 101.369 42.9196 100.145 42.9196C99.4402 42.9196 98.7428 42.703 98.3709 42.3857Z" fill="white"/>
<path d="M107.088 38.3847H109.04C110.489 38.3847 111.481 39.2746 111.481 40.6212C111.481 41.96 110.489 42.8577 109.04 42.8577H107.088V38.3847ZM109.009 42.1535C110.009 42.1535 110.652 41.5499 110.652 40.6212C110.652 39.6925 110.009 39.0889 109.009 39.0889H107.924V42.1535H109.009Z" fill="white"/>
<path d="M116.998 42.1612V42.8577H113.643V38.3924H116.905V39.0889H114.472V40.2497H116.633V40.9308H114.472V42.1612H116.998Z" fill="white"/>
<path d="M122.243 38.3847H123.072V42.85H122.243V38.3847Z" fill="white"/>
<path d="M129.666 42.8577L129.658 39.8938L128.186 42.347H127.814L126.342 39.9324V42.8577H125.552V38.3924H126.233L128.008 41.3564L129.751 38.3924H130.433L130.441 42.8577H129.666Z" fill="white"/>
<path d="M136.686 39.9789C136.686 40.9617 135.957 41.5653 134.78 41.5653H133.772V42.8577H132.943V38.3924H134.78C135.957 38.3847 136.686 38.9883 136.686 39.9789ZM135.849 39.9789C135.849 39.4139 135.469 39.0889 134.741 39.0889H133.772V40.8611H134.741C135.469 40.8611 135.849 40.5361 135.849 39.9789Z" fill="white"/>
<path d="M141.474 41.8207H139.235L138.793 42.8577H137.941L139.955 38.3924H140.777L142.799 42.8577H141.931L141.474 41.8207ZM141.195 41.1707L140.351 39.2205L139.514 41.1707H141.195Z" fill="white"/>
<path d="M144.248 40.6212C144.248 39.2901 145.271 38.3228 146.642 38.3228C147.37 38.3228 147.998 38.5859 148.409 39.0657L147.874 39.5687C147.549 39.2205 147.146 39.0425 146.681 39.0425C145.751 39.0425 145.085 39.6925 145.085 40.6135C145.085 41.5344 145.759 42.1844 146.681 42.1844C147.146 42.1844 147.549 42.0142 147.874 41.6582L148.409 42.169C147.99 42.6565 147.37 42.9119 146.634 42.9119C145.271 42.9196 144.248 41.9523 144.248 40.6212Z" fill="white"/>
<path d="M151.353 39.0889H149.873V38.3847H153.67V39.0889H152.182V42.8577H151.353V39.0889Z" fill="white"/>
<path d="M155.181 40.6212C155.181 39.2979 156.203 38.3228 157.59 38.3228C158.977 38.3228 160 39.2901 160 40.6212C160 41.9445 158.977 42.9196 157.59 42.9196C156.203 42.9196 155.181 41.9445 155.181 40.6212ZM159.163 40.6212C159.163 39.708 158.489 39.0502 157.59 39.0502C156.691 39.0502 156.017 39.708 156.017 40.6212C156.017 41.5344 156.691 42.1922 157.59 42.1922C158.497 42.1922 159.163 41.5344 159.163 40.6212Z" fill="white"/>
<path d="M43.1032 23.3636C43.1032 32.7972 35.8741 38.7407 24.4998 38.7407H18.6111L18.7041 48.7625H4.85037V7.99422H24.4998C35.8663 7.98648 43.1032 13.9222 43.1032 23.3636ZM29.2184 23.3636C29.2184 20.3919 27.4131 18.5887 23.6165 18.5887H18.6034V28.1384H23.6165C27.4131 28.1384 29.2184 26.3353 29.2184 23.3636Z" fill="white"/>
<path d="M37.509 48.747C40.3161 48.747 42.5918 46.4741 42.5918 43.6703C42.5918 40.8665 40.3161 38.5936 37.509 38.5936C34.7018 38.5936 32.4261 40.8665 32.4261 43.6703C32.4261 46.4741 34.7018 48.747 37.509 48.747Z" fill="white"/>
<path d="M47.9303 26.4901C30.7293 30.6149 27.6998 33.9658 23.9652 52.9801C20.2305 33.958 17.2087 30.6149 0 26.4901C17.201 22.3653 20.2305 19.0143 23.9652 0C27.7075 19.0221 30.7293 22.3653 47.9303 26.4901Z" fill="url(#paint0_linear_260_1568)"/>
<defs>
<linearGradient id="paint0_linear_260_1568" x1="10.7102" y1="13.2456" x2="37.2021" y2="39.7694" gradientUnits="userSpaceOnUse">
<stop stop-color="#E83A8D"/>
<stop offset="0.1625" stop-color="#C73C8C"/>
<stop offset="0.3921" stop-color="#973D89"/>
<stop offset="0.5991" stop-color="#6B3D87"/>
<stop offset="0.7757" stop-color="#483B85"/>
<stop offset="0.9151" stop-color="#2F3B83"/>
<stop offset="1" stop-color="#223A83"/>
</linearGradient>
</defs>
</svg>
